<?xml version="1.0" encoding="utf-8"?>
<!-- Generator: Adobe Illustrator 15.0.0, SVG Export Plug-In . SVG Version: 6.00 Build 0)  -->
<!DOCTYPE svg PUBLIC "-//W3C//DTD SVG 1.1//EN" "http://www.w3.org/Graphics/SVG/1.1/DTD/svg11.dtd">
<svg version="1.1" id="Layer_1" xmlns="http://www.w3.org/2000/svg" xmlns:xlink="http://www.w3.org/1999/xlink" x="0px" y="0px"
	 width="276.877px" height="276.877px" viewBox="0 0 276.877 276.877" enable-background="new 0 0 276.877 276.877"
	 xml:space="preserve">
<path opacity="0.2" fill="#272D33" d="M138.438,0C61.98,0,0,61.979,0,138.438c0,76.456,61.98,138.438,138.438,138.438
	s138.438-61.982,138.438-138.438C276.877,61.979,214.896,0,138.438,0z"/>
<path fill="#FFFFFF" d="M44.937,124.846v27.208c0,0.893-0.511,1.706-1.315,2.094c-0.804,0.388-1.759,0.281-2.458-0.275
	l-17.086-13.604c-1.107-0.881-1.107-2.756,0-3.637l16.871-13.433c0.422-0.433,1.011-0.7,1.664-0.7c1.283,0,2.324,1.039,2.324,2.324
	C44.937,124.829,44.938,124.837,44.937,124.846z"/>
<path fill="#FFFFFF" d="M153.872,235.714L140.269,252.8c-0.881,1.107-2.756,1.107-3.637,0l-13.433-16.871
	c-0.433-0.422-0.7-1.011-0.7-1.664c0-1.283,1.039-2.324,2.324-2.324c0.006,0,0.014-0.001,0.022,0h27.208
	c0.893,0,1.706,0.511,2.094,1.315C154.535,234.06,154.429,235.015,153.872,235.714z"/>
<path fill="#FFFFFF" d="M152.054,44.937c-0.006,0-0.014,0.001-0.022,0h-27.208c-0.893,0-1.706-0.511-2.094-1.315
	c-0.388-0.804-0.281-1.759,0.275-2.458l13.604-17.086c0.881-1.107,2.756-1.107,3.637,0l13.433,16.871
	c0.433,0.422,0.7,1.011,0.7,1.664C154.378,43.896,153.339,44.937,152.054,44.937z"/>
<path fill="#FFFFFF" d="M235.929,153.678c-0.422,0.433-1.011,0.7-1.664,0.7c-1.283,0-2.324-1.039-2.324-2.324
	c0-0.006-0.001-0.014,0-0.022v-27.208c0-0.893,0.511-1.706,1.315-2.094c0.804-0.388,1.759-0.281,2.458,0.275l17.086,13.604
	c1.107,0.881,1.107,2.756,0,3.637L235.929,153.678z"/>
<path fill="#FFFFFF" stroke="#000000" stroke-width="18" stroke-miterlimit="10" d="M-1163.935-653.536"/>
<circle opacity="0.2" fill="#272D33" cx="138.438" cy="138.438" r="67.577"/>
</svg>
