<?xml version="1.0" encoding="utf-8"?>
<!-- Generator: Adobe Illustrator 15.0.0, SVG Export Plug-In . SVG Version: 6.00 Build 0)  -->
<!DOCTYPE svg PUBLIC "-//W3C//DTD SVG 1.1//EN" "http://www.w3.org/Graphics/SVG/1.1/DTD/svg11.dtd">
<svg version="1.1" id="Layer_1" xmlns="http://www.w3.org/2000/svg" xmlns:xlink="http://www.w3.org/1999/xlink" x="0px" y="0px"
	 width="481px" height="320px" viewBox="0 0 481 320" enable-background="new 0 0 481 320" xml:space="preserve">
<rect fill="#009EE3" width="481" height="320"/>
<path opacity="0.2" fill="#272D33" d="M160,21.562C83.542,21.562,21.562,83.541,21.562,160c0,76.456,61.98,138.438,138.438,138.438
	S298.438,236.456,298.438,160C298.438,83.541,236.458,21.562,160,21.562z"/>
<path fill="#FFFFFF" d="M66.498,146.407v27.208c0,0.893-0.511,1.706-1.315,2.094c-0.804,0.388-1.759,0.281-2.458-0.275
	L45.639,161.83c-1.107-0.881-1.107-2.756,0-3.637l16.871-13.433c0.422-0.433,1.011-0.7,1.664-0.7c1.283,0,2.324,1.039,2.324,2.324
	C66.498,146.391,66.499,146.398,66.498,146.407z"/>
<path fill="#FFFFFF" d="M175.434,257.275l-13.604,17.086c-0.881,1.107-2.756,1.107-3.637,0l-13.433-16.871
	c-0.433-0.422-0.7-1.011-0.7-1.664c0-1.283,1.039-2.324,2.324-2.324c0.006,0,0.014-0.001,0.022,0h27.208
	c0.893,0,1.706,0.511,2.094,1.315C176.097,255.621,175.99,256.576,175.434,257.275z"/>
<path fill="#FFFFFF" d="M173.615,66.498c-0.006,0-0.014,0.001-0.022,0h-27.208c-0.893,0-1.706-0.511-2.094-1.315
	c-0.388-0.804-0.281-1.759,0.275-2.458l13.604-17.086c0.881-1.107,2.756-1.107,3.637,0l13.433,16.871
	c0.433,0.422,0.7,1.011,0.7,1.664C175.939,65.457,174.9,66.498,173.615,66.498z"/>
<path fill="#FFFFFF" d="M257.49,175.239c-0.422,0.433-1.011,0.7-1.664,0.7c-1.283,0-2.324-1.039-2.324-2.324
	c0-0.006-0.001-0.014,0-0.022v-27.208c0-0.893,0.511-1.706,1.315-2.094c0.804-0.388,1.759-0.281,2.458,0.275l17.086,13.604
	c1.107,0.881,1.107,2.756,0,3.637L257.49,175.239z"/>
<path fill="#FFFFFF" stroke="#000000" stroke-width="18" stroke-miterlimit="10" d="M-1163.935-653.536"/>
<path opacity="0.2" fill="#272D33" d="M323.006,0v320H481V0H323.006z"/>
<text transform="matrix(1 0 0 1 370.5596 35.8936)" fill="#FFFFFF" font-family="'nevis-Bold'" font-size="36">128</text>
<polygon opacity="0.2" fill="#272D33" points="331.843,154.409 352.392,204.021 402.003,224.571 451.614,204.021 472.163,154.409 
	472.163,165.59 451.614,215.202 402.003,235.752 352.392,215.202 331.843,165.59 "/>
<polygon fill="#272D33" points="472.163,154.41 451.614,204.022 402.003,224.571 352.392,204.022 331.843,154.41 352.392,104.799 
	402.003,84.249 451.614,104.799 "/>
<path fill="#FFFFFF" d="M434.523,156.244c-0.006,0.002-0.014,0.002-0.022,0H423.13v4.372c0,16.97-18.311,23.294-29.854,23.294
	h-23.794c-1.235,0-2.236-1.003-2.236-2.236c0-1.236,1.001-2.236,2.236-2.236c0.604-0.007,15.035-0.341,15.035-18.821v-4.372h-11.371
	c-0.931,0-1.765-0.577-2.093-1.448c-0.327-0.873-0.081-1.856,0.62-2.47l30.674-26.86c0.843-0.737,2.104-0.737,2.946,0l30.499,26.701
	c0.584,0.404,0.967,1.079,0.967,1.841C436.76,155.244,435.759,156.244,434.523,156.244z"/>
<rect x="526.246" fill="#009EE3" width="157.994" height="320"/>
<path opacity="0.2" fill="#272D33" d="M526.246,0v320H684.24V0H526.246z"/>
<text transform="matrix(1 0 0 1 574.1387 35.8936)" fill="#FFFFFF" font-family="'nevis-Bold'" font-size="36">128</text>
<polygon fill="#272D33" points="675.403,165.591 654.854,215.203 605.243,235.752 555.632,215.203 535.083,165.591 555.632,115.979 
	605.243,95.43 654.854,115.979 "/>
<circle opacity="0.2" fill="#272D33" cx="160" cy="160" r="67.577"/>
<path fill="#FFFFFF" d="M637.764,167.425c-0.006,0.002-0.014,0.002-0.022,0H626.37v4.372c0,16.97-18.311,23.294-29.854,23.294
	h-23.794c-1.235,0-2.236-1.003-2.236-2.236c0-1.236,1.001-2.236,2.236-2.236c0.604-0.007,15.035-0.341,15.035-18.821v-4.372h-11.371
	c-0.931,0-1.765-0.577-2.093-1.448c-0.327-0.873-0.081-1.856,0.62-2.47l30.674-26.86c0.843-0.737,2.104-0.737,2.946,0l30.499,26.701
	c0.584,0.404,0.967,1.079,0.967,1.841C640,166.425,638.999,167.425,637.764,167.425z"/>
<circle fill="#272D33" cx="227.577" cy="112.467" r="67.658"/>
</svg>
