<?xml version="1.0" encoding="utf-8"?>
<!-- Generator: Adobe Illustrator 15.0.0, SVG Export Plug-In . SVG Version: 6.00 Build 0)  -->
<!DOCTYPE svg PUBLIC "-//W3C//DTD SVG 1.1//EN" "http://www.w3.org/Graphics/SVG/1.1/DTD/svg11.dtd">
<svg version="1.1" id="Layer_1" xmlns="http://www.w3.org/2000/svg" xmlns:xlink="http://www.w3.org/1999/xlink" x="0px" y="0px"
	 width="276.876px" height="276.875px" viewBox="0 0 276.876 276.875" enable-background="new 0 0 276.876 276.875"
	 xml:space="preserve">
<path opacity="0.2" fill="#272D33" enable-background="new    " d="M138.439,0C61.981,0,0,61.979,0,138.438
	c0,76.457,61.98,138.437,138.438,138.437s138.438-61.98,138.438-138.437C276.876,61.979,214.897,0,138.439,0z M44.937,124.845
	v27.208c0,0.893-0.512,1.705-1.315,2.094s-1.759,0.281-2.458-0.275l-17.086-13.604c-1.106-0.881-1.106-2.756,0-3.637l16.871-13.433
	c0.422-0.433,1.011-0.7,1.664-0.7c1.283,0,2.324,1.039,2.324,2.324C44.937,124.829,44.938,124.836,44.937,124.845z M153.872,235.713
	l-13.604,17.086c-0.881,1.107-2.756,1.107-3.638,0l-13.433-16.871c-0.433-0.422-0.7-1.012-0.7-1.664
	c0-1.283,1.039-2.324,2.324-2.324c0.006,0,0.014,0,0.022,0h27.207c0.894,0,1.706,0.512,2.095,1.314
	C154.535,234.059,154.429,235.014,153.872,235.713z M152.054,44.936c-0.007,0-0.015,0.001-0.022,0h-27.208
	c-0.893,0-1.706-0.511-2.094-1.315c-0.389-0.804-0.281-1.759,0.274-2.458l13.604-17.086c0.881-1.107,2.756-1.107,3.637,0
	l13.434,16.871c0.433,0.422,0.699,1.011,0.699,1.664C154.377,43.895,153.338,44.936,152.054,44.936z M235.928,153.676
	c-0.422,0.434-1.011,0.701-1.663,0.701c-1.283,0-2.324-1.039-2.324-2.324c0-0.006-0.001-0.014,0-0.022v-27.208
	c0-0.893,0.511-1.706,1.314-2.094c0.805-0.388,1.76-0.281,2.458,0.275l17.086,13.604c1.107,0.881,1.107,2.756,0,3.637
	L235.928,153.676z"/>
<circle opacity="0.2" fill="#272D33" enable-background="new    " cx="138.439" cy="138.438" r="53.748"/>
</svg>
