<?xml version="1.0" standalone="no"?>
<!DOCTYPE svg PUBLIC "-//W3C//DTD SVG 1.1//EN" "http://www.w3.org/Graphics/SVG/1.1/DTD/svg11.dtd" >
<svg xmlns="http://www.w3.org/2000/svg">
<metadata></metadata>
<defs>
<font id="ablas_altbold" horiz-adv-x="1176" >
<font-face units-per-em="2048" ascent="1638" descent="-410" />
<missing-glyph horiz-adv-x="547" />
<glyph horiz-adv-x="0" />
<glyph unicode="&#xd;" horiz-adv-x="2048" />
<glyph horiz-adv-x="1046" />
<glyph horiz-adv-x="1046" />
<glyph unicode=" "  horiz-adv-x="547" />
<glyph unicode="&#x09;" horiz-adv-x="547" />
<glyph unicode="&#xa0;" horiz-adv-x="547" />
<glyph unicode="!" horiz-adv-x="465" d="M75 144q0 -60 43.5 -104t103.5 -44t104 44t44 104q0 59 -44 103t-104 44t-103.5 -44t-43.5 -103zM83 1461h279l-60 -1050h-159z" />
<glyph unicode="&#x22;" horiz-adv-x="735" d="M77 1460q0 53 31.5 90t84.5 37q52 0 83.5 -37t31.5 -90q0 -43 -7.5 -93t-16 -85t-23.5 -93t-22 -86l-92 -1q-7 29 -22 86.5t-24 93t-16.5 85.5t-7.5 93zM390 1460q0 53 31.5 90t83.5 37q53 0 84.5 -37t31.5 -90q0 -56 -9.5 -111t-31.5 -138.5t-28 -107.5l-92 -1 q-7 29 -22 86.5t-24 93t-16.5 85.5t-7.5 93z" />
<glyph unicode="#" horiz-adv-x="1066" d="M62 739l43 168h137l53 211h-137l43 168h137l52 205h182l-51 -205h170l51 205h182l-51 -205h142l-43 -168h-142l-53 -211h142l-43 -168h-142l-49 -192h-183l49 192h-170l-49 -192h-182l49 192h-137zM424 907h170l54 211h-170z" />
<glyph unicode="$" horiz-adv-x="1263" d="M68 198l159 203q118 -105 323 -119v362q-78 11 -141.5 30t-123 51.5t-100 77t-64.5 110t-24 147.5q0 89 39 166.5t104 131t144.5 88t165.5 47.5v97h153v-91q130 -5 229.5 -46t196.5 -129l-158 -209q-114 96 -268 104v-325q89 -19 152.5 -39t128 -55.5t104 -81.5 t64.5 -116.5t25 -161.5q0 -73 -28 -138.5t-74.5 -115t-108 -88t-128.5 -61.5t-135 -32v-103h-153v101q-313 23 -482 195zM402 1056q0 -26 14 -47.5t39.5 -36t46 -23t48.5 -17.5v282q-148 -42 -148 -158zM703 279q69 7 118.5 55t49.5 116q0 70 -45 106.5t-123 59.5v-337z" />
<glyph unicode="%" horiz-adv-x="1764" d="M32 1135q0 159 107.5 266t265.5 107q159 0 266 -107t107 -266t-107 -266t-266 -107q-158 0 -265.5 107t-107.5 266zM255 1137q0 -61 44.5 -105.5t105.5 -44.5t105.5 44.5t44.5 105.5t-44.5 105.5t-105.5 44.5t-105.5 -44.5t-44.5 -105.5zM304 0l850 1500h284l-848 -1500 h-286zM962 365q0 159 107.5 266t265.5 107q159 0 266 -107t107 -266t-107 -266t-266 -107q-158 0 -265.5 107t-107.5 266zM1185 367q0 -61 44.5 -105.5t105.5 -44.5t105.5 44.5t44.5 105.5t-44.5 105.5t-105.5 44.5t-105.5 -44.5t-44.5 -105.5z" />
<glyph unicode="&#x26;" horiz-adv-x="1481" d="M39 422q0 153 89 270.5t236 190.5q-56 78 -77.5 140t-21.5 154q0 102 53.5 179.5t138.5 116t186 38.5q102 0 190 -36.5t146 -114t58 -181.5q0 -52 -17.5 -98.5t-41 -79.5t-66 -69t-73.5 -57t-83 -53l243 -296q40 74 72 187l215 -72q-13 -72 -46 -157t-72 -148l281 -336 h-341l-121 150q-173 -156 -429 -156q-101 0 -192 26.5t-165 77.5t-118 135t-44 189zM288 432q0 -92 81 -149t177 -57q152 0 272 101l-309 374q-89 -45 -155 -115.5t-66 -153.5zM522 1171q0 -32 14.5 -65t29.5 -53t43 -52q31 17 43.5 23.5t42.5 27t44.5 35.5t27.5 38.5 t13 47.5q0 59 -39.5 89.5t-100.5 30.5q-53 0 -85.5 -34.5t-32.5 -87.5z" />
<glyph unicode="'" horiz-adv-x="417" d="M73 1460q0 53 31.5 90t83.5 37q53 0 84 -37t31 -90q0 -56 -9 -110.5t-31.5 -140t-27.5 -106.5l-92 -1q-7 29 -22 86.5t-24 93t-16.5 85.5t-7.5 93z" />
<glyph unicode="(" horiz-adv-x="686" d="M38 601q0 270 100.5 527t284.5 455h249q-12 -19 -37 -48t-34 -41q-248 -330 -248 -893q0 -557 248 -889q9 -12 34 -42.5t37 -49.5h-249q-186 206 -285.5 457t-99.5 524z" />
<glyph unicode=")" horiz-adv-x="757" d="M33 -380q12 20 39 52.5t32 39.5q248 334 248 889q0 563 -248 893q-6 7 -32.5 38.5t-38.5 50.5h249q183 -198 284 -455t101 -527q0 -272 -100 -523t-285 -458h-249z" />
<glyph unicode="*" horiz-adv-x="793" d="M80 1475l69 120l169 -104v200h136v-200l166 108l71 -119l-177 -100l178 -97l-69 -120l-167 102v-200h-138v200l-165 -106l-71 119l176 102z" />
<glyph unicode="+" horiz-adv-x="1046" d="M33 393v240h352v330h244v-330h352v-240h-352v-330h-244v330h-352z" />
<glyph unicode="," horiz-adv-x="809" d="M70 150q0 61 43.5 105t104.5 44q80 0 128 -50.5t48 -130.5q0 -100 -60 -185t-153 -130l-48 85q35 13 58 44t27 69h7q-65 0 -110 42t-45 107z" />
<glyph unicode="-" horiz-adv-x="506" d="M60 393v240h632v-240h-632z" />
<glyph unicode="." horiz-adv-x="476" d="M69 148q0 60 44 103.5t104 43.5t103.5 -43.5t43.5 -103.5q0 -61 -43.5 -104.5t-103.5 -43.5t-104 43.5t-44 104.5z" />
<glyph unicode="/" horiz-adv-x="689" d="M-5 -54l461 1504h282l-463 -1504h-280z" />
<glyph unicode="0" horiz-adv-x="1241" d="M76 750q0 114 15.5 216.5t55 202.5t100.5 171.5t158 115.5t221 44q122 0 218.5 -44.5t157.5 -117t101 -172t56.5 -202t16.5 -214.5q0 -111 -16.5 -213.5t-57.5 -202t-102 -172t-157 -117.5t-217 -45q-123 0 -219.5 44.5t-157.5 116.5t-101 171.5t-56 202t-16 215.5z M376 750q0 -46 3.5 -91t12.5 -100t27.5 -100.5t45 -85t68.5 -61.5t94 -22q61 0 108 33t73 82t42 115t21 120t5 110q0 460 -251 460q-249 0 -249 -460z" />
<glyph unicode="1" horiz-adv-x="1027" d="M420 1211v64l224 226h299v-1501h-299v1212z" />
<glyph unicode="2" horiz-adv-x="1177" d="M76 0v57l668 768q1 2 16.5 18.5t18.5 20.5t15.5 20t16.5 23t13 21.5t12 24.5t6 24t3 27q0 101 -68.5 158.5t-170.5 57.5q-180 0 -280 -120l-200 200q200 200 519 200q212 0 351 -121.5t139 -329.5q0 -99 -33 -187.5t-67.5 -137.5t-114.5 -146q-13 -17 -20 -25l-207 -253 h444v-300h-1061z" />
<glyph unicode="3" horiz-adv-x="1234" d="M76 220l184 186q79 -62 180 -94.5t205 -32.5q45 0 85.5 8t78 26.5t59.5 53.5t22 83q0 32 -10 58t-32 44t-42.5 31t-57 21.5t-58.5 13.5t-64 7.5t-56.5 3t-52.5 1.5v270q82 -6 122 -6q251 0 251 156q0 49 -27 84.5t-70.5 53t-87 25t-89.5 7.5q-79 0 -168 -25.5t-146 -70.5 l-176 176q115 116 238 158t301 42q96 0 187 -31t163.5 -86t116.5 -139.5t44 -183.5q0 -213 -164 -300q100 -31 152 -120t52 -200q0 -99 -51.5 -184t-132.5 -139.5t-177.5 -85.5t-189.5 -31q-369 0 -589 220z" />
<glyph unicode="4" horiz-adv-x="1307" d="M76 330v49l453 1122l290 1l-337 -875h360l3 365h297v-363h116v-299h-116v-330h-299v330h-767z" />
<glyph unicode="5" horiz-adv-x="1097" d="M76 220l200 200q51 -60 132 -95t162 -35q194 0 254 132q17 39 17 66q0 43 -6.5 77.5t-21.5 59.5t-31.5 43t-44 29.5t-51 18.5t-60.5 10t-64.5 4t-70.5 1l-334 -1v770h870v-280h-570v-210h150q240 0 384.5 -132.5t144.5 -371.5q0 -136 -72.5 -253.5t-192.5 -185 t-256 -67.5q-172 0 -295.5 50t-243.5 170z" />
<glyph unicode="6" horiz-adv-x="1096" d="M76 682q0 190 43.5 364t147.5 286q156 167 373 167q132 0 254.5 -49.5t208.5 -143.5l-169 -154q-129 87 -285 87q-67 0 -121.5 -30.5t-89.5 -81.5t-57 -108t-32 -121q53 49 127.5 75t151.5 26q131 0 244 -61t181.5 -170.5t68.5 -241.5q0 -147 -59.5 -266.5t-174 -190 t-262.5 -70.5q-115 0 -208.5 37.5t-156.5 101.5t-105 152.5t-61 186t-19 205.5zM376 502q0 -94 73 -165t167 -71q93 0 166.5 62.5t73.5 154.5q0 115 -63 182.5t-177 67.5q-105 0 -172.5 -63.5t-67.5 -167.5z" />
<glyph unicode="7" horiz-adv-x="1036" d="M76 1500h1034v-55l-569 -1445h-312l1 57l489 1163h-642z" />
<glyph unicode="8" horiz-adv-x="1130" d="M76 440q0 127 45 202t159 118q-164 75 -164 300q0 214 132 327t349 113q215 0 347 -114t132 -326q0 -225 -164 -300q114 -43 159 -118t45 -202q0 -116 -40 -202.5t-112.5 -137.5t-164.5 -75.5t-204 -24.5t-203.5 24.5t-163.5 75.5t-112 137.5t-40 202.5zM402 450 q0 -77 57.5 -123t136.5 -46t137 46t58 123q0 73 -60 122t-135 49q-74 0 -134 -49t-60 -122zM402 1050q0 -80 55 -117t139 -37q85 0 140 37t55 117q0 77 -58 123t-137 46t-136.5 -46t-57.5 -123z" />
<glyph unicode="9" horiz-adv-x="1189" d="M76 976q0 147 59.5 266.5t174 190t262.5 70.5q115 0 208.5 -37.5t156.5 -101.5t105 -152.5t61 -186t19 -205.5q0 -456 -181 -650q-156 -167 -372 -167q-133 0 -255.5 49.5t-208.5 143.5l169 154q129 -87 286 -87q66 0 119 30.5t86.5 82t53.5 108t30 120.5 q-53 -49 -127.5 -75.5t-150.5 -26.5q-131 0 -244.5 61.5t-182 171t-68.5 241.5zM342 1019q0 -115 63 -182.5t177 -67.5q105 0 172.5 63.5t67.5 167.5q0 93 -73 164.5t-167 71.5q-93 0 -166.5 -63t-73.5 -154z" />
<glyph unicode=":" horiz-adv-x="449" d="M63 148q0 60 43.5 103.5t103.5 43.5t104 -43.5t44 -103.5q0 -61 -44 -104.5t-104 -43.5t-103.5 43.5t-43.5 104.5zM63 856q0 60 43.5 104t103.5 44t104 -44t44 -104t-44 -103.5t-104 -43.5t-103.5 43.5t-43.5 103.5z" />
<glyph unicode=";" horiz-adv-x="449" d="M60 150q0 -65 45 -107t111 -42h-7q-5 -38 -28 -69t-57 -44l47 -85q93 45 153 130t60 185q0 80 -48 130.5t-127 50.5q-61 0 -105 -44t-44 -105zM61 860q0 60 43.5 103.5t104.5 43.5q60 0 103.5 -43.5t43.5 -103.5q0 -61 -43.5 -104.5t-103.5 -43.5q-61 0 -104.5 43.5 t-43.5 104.5z" />
<glyph unicode="&#x3c;" horiz-adv-x="701" d="M50 495v8l260 368h304l-259 -372l259 -369h-304z" />
<glyph unicode="=" horiz-adv-x="888" d="M62 184v240h751v-240h-751zM62 184v240h751v-240h-751zM62 584v240h751v-240h-751zM62 584v240h751v-240h-751z" />
<glyph unicode="&#x3e;" horiz-adv-x="708" d="M52 130l259 369l-259 372h304l260 -368v-8l-260 -365h-304z" />
<glyph unicode="?" horiz-adv-x="1027" d="M41 1296q76 76 115.5 110.5t95.5 59t110.5 29.5t159.5 5q113 0 218.5 -54.5t173 -152.5t67.5 -213q0 -138 -60 -219.5t-191 -148.5q-65 -33 -95 -65.5t-38 -70.5t-8 -116v-60l-255 -1l-1 85q0 59 3 99t13.5 85.5t30.5 78.5t54 65.5t83 57.5q8 4 36.5 18.5t39 20.5t31 21 t29.5 28t16.5 34t7.5 45q0 75 -55.5 129t-130.5 54q-81 0 -138.5 -29.5t-111.5 -94.5zM314 149q0 -61 43.5 -104.5t103.5 -43.5q61 0 104.5 43.5t43.5 104.5q0 60 -43.5 103.5t-104.5 43.5q-60 0 -103.5 -43.5t-43.5 -103.5z" />
<glyph unicode="@" horiz-adv-x="2127" d="M91 516q0 201 75 380t203.5 307t307.5 202.5t380 74.5q161 0 309.5 -40t271 -118.5t213 -187.5t141 -254t50.5 -310q0 -94 -13.5 -174.5t-46.5 -154t-83.5 -125t-129 -82t-178.5 -30.5q-99 0 -183 38t-120 118q-39 -74 -122.5 -115t-173.5 -41q-212 0 -351.5 140 t-139.5 351q0 132 61 244.5t170.5 179.5t242.5 67q149 0 233 -79v68l274 -1v-525q0 -39 10 -79.5t37.5 -75t68.5 -34.5q60 0 104.5 39.5t63.5 94t19 113.5q0 349 -190 548.5t-538 199.5q-152 0 -288 -56t-233.5 -152.5t-154.5 -232t-57 -288.5q0 -132 26 -241t72.5 -189.5 t116 -142.5t151 -102t183.5 -65.5t207 -35.5t228 -10v-190q-59 -7 -127 -7q-82 0 -124 2q-210 6 -388.5 78.5t-306 197.5t-199.5 304t-72 391zM736 515q0 -126 71 -205.5t195 -79.5q71 0 144 54t73 123v159q0 74 -71 133.5t-146 59.5q-102 0 -184 -72t-82 -172z" />
<glyph unicode="A" horiz-adv-x="1520" d="M-27 0l717 1500h59l723 -1499l-319 -1l-104 230h-658l-98 -230h-320zM522 530h407l-198 465z" />
<glyph unicode="B" horiz-adv-x="1380" d="M66 0v1499h655q130 0 236.5 -48.5t172.5 -147t66 -229.5q0 -83 -25.5 -164t-80.5 -119q97 -47 153 -140.5t56 -202.5q0 -97 -29 -173.5t-78.5 -127.5t-120 -85t-149.5 -48.5t-170 -14.5zM367 275h405q237 0 237 176q0 85 -62.5 129.5t-150.5 44.5h-429v-350zM367 898h356 q83 0 139.5 42.5t56.5 121.5q0 78 -56.5 119.5t-136.5 41.5h-359v-325z" />
<glyph unicode="C" horiz-adv-x="1322" d="M7 753q0 208 98.5 379.5t270.5 269.5t380 98q303 0 521 -178l-170 -241q-154 120 -351 120q-199 0 -324 -123.5t-125 -322.5q0 -205 123 -330t328 -125q200 0 349 119l180 -231q-226 -188 -531 -188q-159 0 -298 57.5t-238 157.5t-156 239.5t-57 298.5z" />
<glyph unicode="D" horiz-adv-x="1428" d="M76 0v1501h441q153 0 280 -27t231 -84.5t176 -145t111 -212.5t39 -282q0 -156 -39.5 -281t-111.5 -212t-176 -145t-231 -85t-279 -27h-441zM376 299h199q225 0 352 114t127 337q0 222 -127 336t-352 114h-199v-901z" />
<glyph unicode="E" horiz-adv-x="1222" d="M9 440q0 111 52 200t152 120q-164 87 -164 300q0 99 44 183.5t116.5 139.5t163.5 86t187 31q178 0 301 -42t238 -158l-176 -176q-57 44 -146 70t-168 26q-46 0 -89.5 -7.5t-87 -25t-70.5 -53t-27 -84.5q0 -156 251 -156q42 0 122 6v-270q-38 -1 -52.5 -1.5t-56.5 -3 t-64 -7.5t-58.5 -13.5t-57 -21.5t-42.5 -31t-32 -44t-10 -58q0 -48 22 -83t59.5 -53.5t78 -26.5t85.5 -8q104 0 205 32.5t180 94.5l184 -186q-220 -220 -589 -220q-93 0 -189.5 31t-177.5 85.5t-132.5 139.5t-51.5 184z" />
<glyph unicode="F" horiz-adv-x="1155" d="M37 0h298v506zM37 0v1499l1058 1v-280h-755v-435h557v-279h-562z" />
<glyph unicode="G" horiz-adv-x="1461" d="M20 753q0 156 58 295t157.5 238t238.5 156.5t295 57.5q304 0 521 -178l-170 -241q-153 120 -351 120q-199 0 -324 -123.5t-125 -322.5q0 -206 122.5 -330.5t328.5 -124.5q231 0 356 129v67l-307 -1v280h581l4 -447q-79 -143 -270 -235.5t-366 -92.5q-159 0 -298.5 57.5 t-238 157.5t-155.5 239.5t-57 298.5z" />
<glyph unicode="H" horiz-adv-x="1524" d="M108 0v1500h300v-718h699v719h300v-1500l-300 -1v502h-699v-502h-300z" />
<glyph unicode="I" horiz-adv-x="504" d="M89 0v1501h299v-1501h-299z" />
<glyph unicode="J" horiz-adv-x="747" d="M50 0v280q36 0 56.5 0.5t50.5 2.5t48 6t41 11.5t36 18.5t28 27.5t22.5 38t12.5 50.5t5 64v1001h301l-1 -1101q-1 -180 -110 -289.5t-288 -109.5h-202z" />
<glyph unicode="K" horiz-adv-x="1357" d="M55 0v1500h300v-922l500 922h337l-492 -881l615 -619h-390l-368 363l-202 -363h-300z" />
<glyph unicode="L" horiz-adv-x="1103" d="M28 0v1500h300v-1220h800v-280h-1100z" />
<glyph unicode="M" horiz-adv-x="1706" d="M99 0l140 1500h43l557 -730l553 730h48l140 -1500h-300l-71 837l-370 -467l-370 467l-70 -837h-300z" />
<glyph unicode="N" horiz-adv-x="1545" d="M89 0v1500h33l1007 -877v877h300v-1500h-23l-1017 874v-874h-300z" />
<glyph unicode="O" horiz-adv-x="1596" d="M7 750q0 212 97.5 383.5t269 269t383.5 97.5q211 0 383 -97.5t269.5 -269.5t97.5 -383t-97.5 -383t-269.5 -269.5t-383 -97.5q-212 0 -383.5 97.5t-269 269t-97.5 383.5zM307 750q0 -202 125 -336t326 -134q199 0 324 134.5t125 335.5q0 202 -125.5 336t-325.5 134 t-324.5 -134.5t-124.5 -335.5z" />
<glyph unicode="P" horiz-adv-x="1315" d="M52 0v1500h618q163 0 288.5 -58.5t199 -178.5t73.5 -287q0 -149 -76.5 -269.5t-204.5 -187t-279 -66.5h-319v-453h-300zM352 733h374q90 0 161 72t71 168q0 97 -70.5 171.5t-158.5 74.5h-377v-486z" />
<glyph unicode="Q" horiz-adv-x="1637" d="M44 750q0 212 97.5 383.5t269 269t383.5 97.5q211 0 383 -97.5t269.5 -269.5t97.5 -383q0 -177 -69.5 -327t-193.5 -253q69 -35 162 -35h141v-265h-151q-140 0 -237.5 40.5t-170.5 122.5q-113 -33 -231 -33q-181 0 -333.5 72.5t-255.5 201.5l-5 1v5q-156 200 -156 470z M344 750q0 -68 15 -129q119 89 311 89q168 0 281.5 -83.5t160.5 -219.5q132 134 132 343q0 202 -125.5 336t-325.5 134q-199 0 -324 -134.5t-125 -335.5zM492 392q123 -112 303 -112q39 0 77 6q-23 48 -36.5 71.5t-38 49.5t-56.5 36t-78 10q-112 0 -171 -61z" />
<glyph unicode="R" horiz-adv-x="1346" d="M65 0v1500h618q163 0 288.5 -58.5t199 -178.5t73.5 -287q0 -151 -86.5 -282t-242.5 -196l377 -498h-344l-583 744v-744h-300zM365 1219l367 -486h7q90 0 161 72t71 168q0 97 -70.5 171.5t-158.5 74.5h-377z" />
<glyph unicode="S" horiz-adv-x="1223" d="M37 198l159 203q70 -62 171.5 -92t207.5 -30q45 0 85.5 8t78 26.5t59.5 53.5t22 83q0 31 -9.5 56.5t-24 43.5t-39 32.5t-45 23t-52.5 16t-52 11t-52 7.5q-82 12 -147 29t-130 49t-107.5 76t-69 112t-26.5 154q0 102 50.5 187.5t131 139.5t176.5 83.5t192 29.5 q156 0 264 -38t218 -138l-158 -209q-123 105 -294 105q-45 0 -85.5 -7t-80.5 -23.5t-64 -51t-24 -82.5q0 -40 26 -68t69.5 -44.5t100 -29.5t119 -27.5t125 -33t119 -51.5t100 -78.5t69.5 -118t26 -165.5q0 -80 -33.5 -152t-89.5 -123.5t-127.5 -89.5t-148.5 -56.5 t-152 -18.5q-159 0 -308.5 48.5t-249.5 149.5z" />
<glyph unicode="T" horiz-adv-x="1233" d="M21 1220v280h1300v-280h-500v-1220h-300v1220h-500z" />
<glyph unicode="U" horiz-adv-x="1467" d="M73 590v910h300v-830q0 -170 91 -270t259 -100q165 0 257.5 101.5t92.5 268.5v830h300v-910q0 -132 -53.5 -244.5t-143 -187t-207 -116.5t-246.5 -42q-102 0 -198.5 26.5t-178 78t-143 122t-96 164.5t-34.5 199z" />
<glyph unicode="V" horiz-adv-x="1344" d="M8 1500h320l426 -910l434 910h320l-721 -1500h-64z" />
<glyph unicode="W" horiz-adv-x="2105" d="M36 1500h320l261 -830l398 830h66l376 -830l260 830h320l-512 -1500h-64l-424 940l-413 -940h-64z" />
<glyph unicode="X" horiz-adv-x="1583" d="M21 1500h356l394 -528l394 528h356l-573 -771l549 -729h-352l-374 503l-364 -503h-352l539 729z" />
<glyph unicode="Y" horiz-adv-x="1499" d="M4 1500h352l378 -530l386 530h344l-580 -840v-660h-300v660z" />
<glyph unicode="Z" horiz-adv-x="1327" d="M48 0l1 59l759 1161h-719l-1 280h1191v-59l-732 -1161h662v-280h-1161z" />
<glyph unicode="[" horiz-adv-x="496" d="M29 -400v2299q418 0 501 1l1 -270h-222v-1760h221v-270h-501z" />
<glyph unicode="\" horiz-adv-x="778" d="M-1 1444h282l461 -1504h-280z" />
<glyph unicode="]" horiz-adv-x="651" d="M32 1630l1 270q84 -1 501 -1v-2299h-501v270h221v1760h-222z" />
<glyph unicode="^" horiz-adv-x="850" d="M65 1252l353 490l349 -490h-201l-150 144l-149 -144h-202z" />
<glyph unicode="_" horiz-adv-x="1031" d="M23 -70h1044v-195h-1044v195z" />
<glyph unicode="`" d="M190 1491h252l132 -331h-150z" />
<glyph unicode="a" d="M62 500q0 208 138 354t345 146q156 0 237 -81v69l280 -1v-987h-280v80q-113 -80 -220 -80q-217 0 -358.5 142t-141.5 358zM309 520q0 -119 72.5 -198.5t190.5 -79.5q71 0 146.5 54.5t75.5 123.5v152q0 75 -73 136t-149 61q-103 0 -183 -73.5t-80 -175.5z" />
<glyph unicode="b" horiz-adv-x="1108" d="M26 0v1499l280 1v-581q81 81 236 81q207 0 345.5 -146t138.5 -354q0 -216 -142 -358t-358 -142q-109 0 -220 80v-80h-280zM293 420q0 -72 74 -126t149 -54q127 0 195 76t68 204q0 102 -80 175.5t-183 73.5q-82 0 -152.5 -58.5t-70.5 -138.5v-152z" />
<glyph unicode="c" horiz-adv-x="951" d="M30 495q0 142 61.5 257t174 181.5t254.5 66.5q98 0 202.5 -32.5t159.5 -94.5l-141 -182q-80 79 -212 79q-115 0 -187.5 -77t-72.5 -193q0 -111 70 -190.5t180 -79.5q127 0 239 89l146 -174q-66 -74 -169.5 -109.5t-215.5 -35.5q-214 0 -351.5 140t-137.5 355z" />
<glyph unicode="d" horiz-adv-x="1181" d="M65 500q0 136 62 250.5t173.5 182t247.5 67.5q156 0 237 -81v581l280 -1v-1499h-280v80q-111 -80 -220 -80q-216 0 -358 142t-142 358zM312 520q0 -130 68 -210t195 -80q46 0 97 19.5t89 59t38 87.5v162q0 88 -67.5 149.5t-156.5 61.5q-103 0 -183 -73.5t-80 -175.5z" />
<glyph unicode="e" horiz-adv-x="1100" d="M47 500q0 212 144.5 356t355.5 144q139 0 249.5 -67t170.5 -181t60 -252v-100h-702q5 -71 76 -120.5t146 -49.5q77 0 133 14.5t111 54.5l153 -141q-139 -158 -397 -158q-135 0 -250 67.5t-182.5 182.5t-67.5 250zM335 600h422q-12 83 -68 126.5t-142 43.5 q-74 0 -140 -49.5t-72 -120.5z" />
<glyph unicode="f" horiz-adv-x="654" d="M6 758v229h150v115q0 181 96.5 289.5t273.5 108.5q78 0 132.5 -15.5t122.5 -55.5l-127 -189q-52 25 -97 25q-120 0 -120 -145v-133h172v-229h-172v-758h-281v758h-150z" />
<glyph unicode="g" horiz-adv-x="1171" d="M59 500q0 218 124 359t339 141q176 0 257 -91v79l280 -1v-907q0 -223 -139 -364.5t-361 -141.5q-129 0 -247.5 41t-202.5 125l130 150q123 -90 284 -90q119 0 187.5 61.5t68.5 178.5v50q-113 -90 -260 -90q-229 0 -344.5 134t-115.5 366zM306 520q0 -130 67.5 -210 t195.5 -80q76 0 150 53.5t74 126.5v162q0 83 -70 140t-154 57q-114 0 -188.5 -68t-74.5 -181z" />
<glyph unicode="h" horiz-adv-x="1109" d="M89 0v1500h280v-590q101 90 240 90q171 0 280.5 -104.5t109.5 -275.5v-620h-280v550q0 99 -51.5 156t-149.5 57q-83 0 -149 -87v-676h-280z" />
<glyph unicode="i" horiz-adv-x="480" d="M90 1264q0 61 43.5 104t104.5 43t104 -43t43 -104t-43 -104.5t-104 -43.5q-62 0 -105 43t-43 105zM97 0v985h280v-985h-280z" />
<glyph unicode="j" horiz-adv-x="649" d="M-35 -180q39 0 63.5 0.5t56.5 3.5t52 9t43 16t36.5 26.5t25.5 39t17.5 54t5.5 70.5v948h281l-1 -1018q0 -179 -100 -289t-278 -110h-202v250zM257 1264q0 61 43 104t104 43t104.5 -43t43.5 -104t-43.5 -104.5t-104.5 -43.5t-104 43.5t-43 104.5z" />
<glyph unicode="k" horiz-adv-x="992" d="M39 0v1500h300v-889l291 376h327l-329 -437l435 -550h-390l-334 442v-442h-300z" />
<glyph unicode="l" horiz-adv-x="487" d="M90 0v1500h280v-1500h-280z" />
<glyph unicode="m" horiz-adv-x="1712" d="M84 0v987h280v-75q94 88 240 88q190 0 290 -115q109 115 330 115q171 0 280.5 -104.5t109.5 -275.5v-620h-280v550q0 99 -47 156t-144 57q-57 0 -100.5 -40.5t-43.5 -96.5l-5 -626h-280v550q0 99 -47 156t-144 57q-64 0 -111.5 -43.5t-47.5 -106.5v-613h-280zM994 0 l5 626z" />
<glyph unicode="n" horiz-adv-x="1095" d="M86 0v987h280v-77q101 90 240 90q171 0 280.5 -104.5t109.5 -275.5v-620h-280v550q0 100 -45.5 156.5t-142.5 56.5q-64 0 -113 -45.5t-49 -108.5v-609h-280z" />
<glyph unicode="o" horiz-adv-x="1156" d="M51 500q0 219 145.5 364.5t364.5 145.5t364.5 -145.5t145.5 -364.5t-145.5 -364.5t-364.5 -145.5t-364.5 145.5t-145.5 364.5zM304 499q0 -115 71 -191t185 -76t185 76t71 191t-71.5 191.5t-185.5 76.5q-113 0 -184 -77t-71 -191z" />
<glyph unicode="p" horiz-adv-x="1167" d="M77 -421v1411h280v-69q111 80 220 80q216 0 358 -142t142 -358q0 -136 -62 -250.5t-173.5 -182t-247.5 -67.5q-155 0 -237 81v-503h-280zM345 429q0 -75 73 -136t149 -61q103 0 183 73.5t80 175.5q0 129 -68 209.5t-195 80.5q-72 0 -147 -55.5t-75 -124.5v-162z" />
<glyph unicode="q" horiz-adv-x="1174" d="M59 501q0 216 142 358t358 142q128 0 220 -80v69h280v-1410l-280 -1v503q-82 -81 -236 -81q-207 0 -345.5 146t-138.5 354zM306 508q0 -118 73 -197t190 -79q83 0 151.5 58t68.5 139v162q0 78 -69.5 129t-150.5 51q-118 0 -190.5 -72.5t-72.5 -190.5z" />
<glyph unicode="r" horiz-adv-x="736" d="M45 0v987h280v-97q113 116 257 116q42 0 91 -12t73 -35l-111 -243q-54 47 -140 47q-79 0 -124.5 -59t-45.5 -141v-563h-280z" />
<glyph unicode="s" horiz-adv-x="880" d="M50 129l127 167q39 -35 109 -55.5t130 -20.5q182 0 182 81q0 24 -18 40t-48 25t-68.5 16t-81.5 15.5t-86.5 20t-82 33t-68.5 51t-48 77.5t-18 109q0 94 54 168t136.5 112t174.5 38q230 0 362 -118l-125 -174q-88 62 -198 62q-22 0 -46 -2.5t-52.5 -9.5t-47 -23t-18.5 -38 q0 -24 22 -40.5t58.5 -25.5t83 -20.5t95 -23t95 -36t83 -56.5t58.5 -87t22 -126q0 -90 -63 -160.5t-150 -104t-174 -33.5q-261 0 -399 139z" />
<glyph unicode="t" horiz-adv-x="730" d="M8 757v231h150v312h281v-312h166v-231h-166v-377q0 -145 120 -145q23 0 75 13l59 -201q-72 -47 -165 -47q-161 0 -265.5 90.5t-104.5 249.5v417h-150z" />
<glyph unicode="u" horiz-adv-x="1104" d="M78 419v570h280v-538q0 -99 51.5 -156t149.5 -57q55 0 102 42.5t47 96.5v612h280v-989h-280v91q-101 -90 -240 -90q-182 0 -286 116.5t-104 301.5z" />
<glyph unicode="v" horiz-adv-x="1018" d="M-8 990h294l215 -468l220 468h294l-478 -990h-60z" />
<glyph unicode="w" horiz-adv-x="1330" d="M-20 990h273l135 -455l222 455h64l204 -451l144 451h273l-350 -988h-62l-245 473l-248 -473h-60z" />
<glyph unicode="x" horiz-adv-x="981" d="M-26 0l356 521l-324 467h284l183 -258l183 258h284l-324 -467l356 -521h-287l-212 312l-212 -312h-287z" />
<glyph unicode="y" horiz-adv-x="1076" d="M47 380l1 608h280l-1 -538q-1 -99 51 -156t150 -57q61 0 107 35t47 94l1 622h280l-1 -908q-1 -218 -142 -362t-358 -144q-103 0 -202 45t-178 121l130 150q51 -39 114.5 -69.5t112.5 -30.5q243 0 243 250v51q-106 -91 -245 -91q-172 0 -281.5 104.5t-108.5 275.5z" />
<glyph unicode="z" horiz-adv-x="930" d="M3 0v55l446 687h-386v245h809v-57l-447 -694h387v-236h-809z" />
<glyph unicode="{" horiz-adv-x="745" d="M45 547v46h92q31 0 53.5 20.5t34 52.5t16.5 62.5t5 58.5v516q0 280 286 280h185v-45q-13 0 -43 1.5t-45.5 1.5t-38 -4.5t-34 -14.5t-20.5 -30t-9 -50v-698q0 -148 -140 -174q140 -25 140 -174v-623q0 -55 25.5 -77t81.5 -22q14 0 41.5 1.5t41.5 1.5v-51h-185 q-286 0 -286 280v445q0 28 -5.5 59t-16.5 63t-34 53t-53 21h-92z" />
<glyph unicode="|" horiz-adv-x="461" d="M96 -375v1960h260v-1960h-260z" />
<glyph unicode="}" horiz-adv-x="745" d="M45 -323q14 0 41.5 -1.5t41.5 -1.5q56 0 82 22t26 77v623q0 149 139 174q-139 26 -139 174v698q0 30 -9 50t-20.5 30t-34.5 14.5t-38.5 4.5t-45.5 -1.5t-43 -1.5v45h185q286 0 286 -280v-516q0 -39 8.5 -80t34.5 -77.5t66 -36.5h92v-46h-92q-30 0 -53 -21t-34 -53 t-16.5 -63t-5.5 -59v-445q0 -280 -286 -280h-185v51z" />
<glyph unicode="~" horiz-adv-x="741" d="M68 574q33 57 83.5 90.5t112.5 33.5q64 0 144.5 -36.5t112.5 -36.5q50 0 105 31l48 -85q-33 -57 -84 -91t-113 -34q-58 0 -138 36t-121 36q-50 0 -103 -29z" />
<glyph unicode="&#xa3;" horiz-adv-x="1301" d="M120 0v55q17 16 52 48t50.5 46.5t42.5 43.5t39.5 47.5t30.5 48.5t25.5 57.5t13.5 64t6 76.5q0 95 -31 147h-184v165h124q-50 104 -50 269q0 136 70.5 235.5t181 147t243.5 47.5q135 0 254.5 -52t192.5 -154l-175 -242q-47 75 -116 118.5t-153 43.5q-91 0 -149.5 -52.5 t-58.5 -142.5q0 -116 48 -218h412v-165h-371q38 -89 38 -189q0 -61 -30 -155l496 2v-292h-1002z" />
<glyph unicode="&#xa8;" horiz-adv-x="734" d="M71 1310q0 52 37 88.5t88 36.5t88 -36.5t37 -88.5q0 -51 -37 -87.5t-88 -36.5t-88 36.5t-37 87.5zM427 1310q0 52 36.5 88.5t87.5 36.5q52 0 88.5 -36.5t36.5 -88.5q0 -51 -36.5 -87.5t-88.5 -36.5q-51 0 -87.5 36.5t-36.5 87.5z" />
<glyph unicode="&#xa9;" horiz-adv-x="1643" d="M107 696q0 196 95 360t259.5 258.5t360.5 94.5t360.5 -94.5t259.5 -258.5t95 -360t-95 -359.5t-259.5 -258t-360.5 -94.5t-360.5 94.5t-259.5 258t-95 359.5zM224 696q0 -124 46 -235.5t125.5 -192t190.5 -127.5t236 -47q166 0 303.5 79.5t216 218t78.5 304.5 t-78.5 304.5t-216 218t-303.5 79.5q-125 0 -236 -47t-190.5 -127.5t-125.5 -192t-46 -235.5zM421 689q0 179 114 298.5t292 119.5q80 0 167 -27t133 -78l-117 -151q-66 66 -175 66q-96 0 -155.5 -63.5t-59.5 -160.5q0 -92 58 -158t149 -66q102 0 198 74l120 -144 q-54 -61 -140 -90.5t-178 -29.5q-178 0 -292 116t-114 294z" />
<glyph unicode="&#xab;" horiz-adv-x="913" d="M61 495v8l190 268h204l-190 -272l190 -269h-204zM442 495v8l190 268h204l-190 -272l190 -269h-204z" />
<glyph unicode="&#xad;" horiz-adv-x="809" d="M60 393v240h632v-240h-632z" />
<glyph unicode="&#xae;" horiz-adv-x="799" d="M56 1149q0 145 99.5 243.5t244.5 98.5q146 0 247 -98t101 -244q0 -145 -101.5 -242.5t-246.5 -97.5t-244.5 98t-99.5 242zM132 1149q0 -117 75.5 -193.5t192.5 -76.5q118 0 196 76.5t78 193.5q0 120 -77 197t-197 77q-119 0 -193.5 -77.5t-74.5 -196.5zM268 978h73v133 h63l77 -133h83l-81 142q31 13 50 43t19 64q0 58 -36 85t-96 27h-152v-361zM341 1179v92h90q23 0 39.5 -11.5t16.5 -33.5q0 -21 -17 -34t-39 -13h-90z" />
<glyph unicode="&#xb0;" horiz-adv-x="741" d="M97 1242q0 108 74.5 183t182.5 75q106 0 181.5 -75.5t75.5 -182.5t-76 -182t-183 -75t-181 75t-74 182zM254 1241q0 -40 29 -69t69 -29t68.5 29t28.5 69t-28.5 69t-68.5 29t-69 -29t-29 -69z" />
<glyph unicode="&#xb4;" d="M498 1160l132 331h252l-234 -331h-150z" />
<glyph unicode="&#xb8;" horiz-adv-x="1024" d="M324 -331l37 48q43 -41 115 -41q24 0 41.5 19t17.5 43q0 13 -3.5 22.5t-8 16t-14.5 11t-16.5 6.5t-19.5 3t-19.5 1h-21h-18.5l-32 202h187v-108q50 0 84.5 -45.5t34.5 -97.5q0 -79 -48 -129t-126 -50q-123 0 -190 99z" />
<glyph unicode="&#xbb;" horiz-adv-x="930" d="M56 230l189 269l-189 272h204l190 -268v-8l-190 -265h-204zM437 230l190 269l-190 272h204l190 -268v-8l-190 -265h-204z" />
<glyph unicode="&#xc0;" horiz-adv-x="1520" d="M-27 0h320l98 230h658l104 -230l319 1l-723 1499h-59zM397 1907h252l132 -331h-150zM522 530l209 465l198 -465h-407z" />
<glyph unicode="&#xc1;" horiz-adv-x="1520" d="M-27 0l717 1500h59l723 -1499l-319 -1l-104 230h-658l-98 -230h-320zM522 530h407l-198 465zM648 1578l132 331h252l-234 -331h-150z" />
<glyph unicode="&#xc2;" horiz-adv-x="1520" d="M-27 0l717 1500h59l723 -1499l-319 -1l-104 230h-658l-98 -230h-320zM441 1565l250 332h60l248 -332h-152l-126 110l-129 -110h-151zM522 530h407l-198 465z" />
<glyph unicode="&#xc3;" horiz-adv-x="1520" d="M-27 0l717 1500h59l723 -1499l-319 -1l-104 230h-658l-98 -230h-320zM457 1702q64 109 172 109q60 0 128 -32t96 -32q42 0 92 27l41 -74q-64 -109 -171 -109q-53 0 -122 31t-105 31q-43 0 -90 -25zM522 530h407l-198 465z" />
<glyph unicode="&#xc4;" horiz-adv-x="1520" d="M-27 0h320l98 230h658l104 -230l319 1l-723 1499h-59zM276 1459q0 52 37 88.5t88 36.5t88 -36.5t37 -88.5q0 -51 -37 -87.5t-88 -36.5t-88 36.5t-37 87.5zM522 530l209 465l198 -465h-407zM917 1459q0 52 37 88.5t88 36.5t88 -36.5t37 -88.5q0 -51 -37 -87.5t-88 -36.5 t-88 36.5t-37 87.5z" />
<glyph unicode="&#xc5;" horiz-adv-x="1520" d="M-27 0l717 1500h59l723 -1499l-319 -1l-104 230h-658l-98 -230h-320zM522 530h407l-198 465zM526 1780q0 80 55.5 135.5t134.5 55.5t134.5 -56t55.5 -135q0 -78 -56.5 -133.5t-134.5 -55.5q-79 0 -134 55t-55 134zM642 1780q0 -29 21.5 -50.5t51.5 -21.5q29 0 50 21.5 t21 50.5t-21 50.5t-50 21.5q-30 0 -51.5 -21.5t-21.5 -50.5z" />
<glyph unicode="&#xc6;" horiz-adv-x="1520" d="M-27 0l717 1500h830v-280h-614l197 -438l417 1v-279l-283 -1l110 -223h454v-280h-640l-104 230h-658l-98 -230h-328zM530 530h407l-198 465z" />
<glyph unicode="&#xc7;" horiz-adv-x="1322" d="M7 753q0 208 98.5 379.5t270.5 269.5t380 98q303 0 521 -178l-170 -241q-154 120 -351 120q-199 0 -324 -123.5t-125 -322.5q0 -205 123 -330t328 -125q200 0 349 119l180 -231q-226 -188 -531 -188q-159 0 -298 57.5t-238 157.5t-156 239.5t-57 298.5zM576 -321l37 48 q43 -41 115 -41q24 0 41.5 19t17.5 43q0 13 -3.5 22.5t-8 16t-14.5 11t-16.5 6.5t-19.5 3t-19.5 1h-21h-18.5l-32 202h187v-108q50 0 84.5 -45.5t34.5 -97.5q0 -79 -48 -129t-126 -50q-123 0 -190 99z" />
<glyph unicode="&#xc8;" horiz-adv-x="1222" d="M9 440q0 111 52 200t152 120q-164 87 -164 300q0 99 44 183.5t116.5 139.5t163.5 86t187 31q178 0 301 -42t238 -158l-176 -176q-57 44 -146 70t-168 26q-46 0 -89.5 -7.5t-87 -25t-70.5 -53t-27 -84.5q0 -156 251 -156q42 0 122 6v-270q-38 -1 -52.5 -1.5t-56.5 -3 t-64 -7.5t-58.5 -13.5t-57 -21.5t-42.5 -31t-32 -44t-10 -58q0 -48 22 -83t59.5 -53.5t78 -26.5t85.5 -8q104 0 205 32.5t180 94.5l184 -186q-220 -220 -589 -220q-93 0 -189.5 31t-177.5 85.5t-132.5 139.5t-51.5 184zM327 1907h252l132 -331h-150z" />
<glyph unicode="&#xc9;" horiz-adv-x="1222" d="M9 440q0 111 52 200t152 120q-164 87 -164 300q0 99 44 183.5t116.5 139.5t163.5 86t187 31q178 0 301 -42t238 -158l-176 -176q-57 44 -146 70t-168 26q-46 0 -89.5 -7.5t-87 -25t-70.5 -53t-27 -84.5q0 -156 251 -156q42 0 122 6v-270q-38 -1 -52.5 -1.5t-56.5 -3 t-64 -7.5t-58.5 -13.5t-57 -21.5t-42.5 -31t-32 -44t-10 -58q0 -48 22 -83t59.5 -53.5t78 -26.5t85.5 -8q104 0 205 32.5t180 94.5l184 -186q-220 -220 -589 -220q-93 0 -189.5 31t-177.5 85.5t-132.5 139.5t-51.5 184zM438 1578l132 331h252l-234 -331h-150z" />
<glyph unicode="&#xca;" horiz-adv-x="1222" d="M9 440q0 111 52 200t152 120q-164 87 -164 300q0 99 44 183.5t116.5 139.5t163.5 86t187 31q178 0 301 -42t238 -158l-176 -176q-57 44 -146 70t-168 26q-46 0 -89.5 -7.5t-87 -25t-70.5 -53t-27 -84.5q0 -156 251 -156q42 0 122 6v-270q-38 -1 -52.5 -1.5t-56.5 -3 t-64 -7.5t-58.5 -13.5t-57 -21.5t-42.5 -31t-32 -44t-10 -58q0 -48 22 -83t59.5 -53.5t78 -26.5t85.5 -8q104 0 205 32.5t180 94.5l184 -186q-220 -220 -589 -220q-93 0 -189.5 31t-177.5 85.5t-132.5 139.5t-51.5 184zM321 1565l250 332h60l248 -332h-152l-126 110 l-129 -110h-151z" />
<glyph unicode="&#xcb;" horiz-adv-x="1222" d="M9 440q0 111 52 200t152 120q-164 87 -164 300q0 99 44 183.5t116.5 139.5t163.5 86t187 31q178 0 301 -42t238 -158l-176 -176q-57 44 -146 70t-168 26q-46 0 -89.5 -7.5t-87 -25t-70.5 -53t-27 -84.5q0 -156 251 -156q42 0 122 6v-270q-38 -1 -52.5 -1.5t-56.5 -3 t-64 -7.5t-58.5 -13.5t-57 -21.5t-42.5 -31t-32 -44t-10 -58q0 -48 22 -83t59.5 -53.5t78 -26.5t85.5 -8q104 0 205 32.5t180 94.5l184 -186q-220 -220 -589 -220q-93 0 -189.5 31t-177.5 85.5t-132.5 139.5t-51.5 184zM297 1761q0 52 37 88.5t88 36.5t88 -36.5t37 -88.5 q0 -51 -37 -87.5t-88 -36.5t-88 36.5t-37 87.5zM653 1761q0 52 36.5 88.5t87.5 36.5q52 0 88.5 -36.5t36.5 -88.5q0 -51 -36.5 -87.5t-88.5 -36.5q-51 0 -87.5 36.5t-36.5 87.5z" />
<glyph unicode="&#xcc;" horiz-adv-x="504" d="M-32 1907h252l132 -331h-150zM89 0h299v1501h-299v-1501z" />
<glyph unicode="&#xcd;" horiz-adv-x="504" d="M89 0v1501h299v-1501h-299zM132 1578l132 331h252l-234 -331h-150z" />
<glyph unicode="&#xce;" horiz-adv-x="504" d="M-49 1565l250 332h60l248 -332h-152l-126 110l-129 -110h-151zM89 0v1501h299v-1501h-299z" />
<glyph unicode="&#xcf;" horiz-adv-x="504" d="M-53 1761q0 52 37 88.5t88 36.5t88 -36.5t37 -88.5q0 -51 -37 -87.5t-88 -36.5t-88 36.5t-37 87.5zM89 0h299v1501h-299v-1501zM303 1761q0 52 36.5 88.5t87.5 36.5q52 0 88.5 -36.5t36.5 -88.5q0 -51 -36.5 -87.5t-88.5 -36.5q-51 0 -87.5 36.5t-36.5 87.5z" />
<glyph unicode="&#xd1;" horiz-adv-x="1545" d="M89 0v1500h33l1007 -877v877h300v-1500h-23l-1017 874v-874h-300zM457 1702q64 109 172 109q60 0 128 -32t96 -32q42 0 92 27l41 -74q-64 -109 -171 -109q-53 0 -122 31t-105 31q-43 0 -90 -25z" />
<glyph unicode="&#xd2;" horiz-adv-x="1596" d="M7 750q0 -212 97.5 -383.5t269 -269t383.5 -97.5q211 0 383 97.5t269.5 269.5t97.5 383t-97.5 383t-269.5 269.5t-383 97.5q-212 0 -383.5 -97.5t-269 -269t-97.5 -383.5zM307 750q0 201 124.5 335.5t324.5 134.5t325.5 -134t125.5 -336q0 -201 -125 -335.5t-324 -134.5 q-201 0 -326 134t-125 336zM457 1907h252l132 -331h-150z" />
<glyph unicode="&#xd3;" horiz-adv-x="1596" d="M7 750q0 212 97.5 383.5t269 269t383.5 97.5q211 0 383 -97.5t269.5 -269.5t97.5 -383t-97.5 -383t-269.5 -269.5t-383 -97.5q-212 0 -383.5 97.5t-269 269t-97.5 383.5zM307 750q0 -202 125 -336t326 -134q199 0 324 134.5t125 335.5q0 202 -125.5 336t-325.5 134 t-324.5 -134.5t-124.5 -335.5zM608 1578l132 331h252l-234 -331h-150z" />
<glyph unicode="&#xd4;" horiz-adv-x="1596" d="M7 750q0 212 97.5 383.5t269 269t383.5 97.5q211 0 383 -97.5t269.5 -269.5t97.5 -383t-97.5 -383t-269.5 -269.5t-383 -97.5q-212 0 -383.5 97.5t-269 269t-97.5 383.5zM307 750q0 -202 125 -336t326 -134q199 0 324 134.5t125 335.5q0 202 -125.5 336t-325.5 134 t-324.5 -134.5t-124.5 -335.5zM461 1565l250 332h60l248 -332h-152l-126 110l-129 -110h-151z" />
<glyph unicode="&#xd5;" horiz-adv-x="1596" d="M7 750q0 212 97.5 383.5t269 269t383.5 97.5q211 0 383 -97.5t269.5 -269.5t97.5 -383t-97.5 -383t-269.5 -269.5t-383 -97.5q-212 0 -383.5 97.5t-269 269t-97.5 383.5zM307 750q0 -202 125 -336t326 -134q199 0 324 134.5t125 335.5q0 202 -125.5 336t-325.5 134 t-324.5 -134.5t-124.5 -335.5zM477 1702q64 109 172 109q60 0 128 -32t96 -32q42 0 92 27l41 -74q-64 -109 -171 -109q-53 0 -122 31t-105 31q-43 0 -90 -25z" />
<glyph unicode="&#xd6;" horiz-adv-x="1596" d="M7 750q0 212 97.5 383.5t269 269t383.5 97.5q211 0 383 -97.5t269.5 -269.5t97.5 -383t-97.5 -383t-269.5 -269.5t-383 -97.5q-212 0 -383.5 97.5t-269 269t-97.5 383.5zM307 750q0 -202 125 -336t326 -134q199 0 324 134.5t125 335.5q0 202 -125.5 336t-325.5 134 t-324.5 -134.5t-124.5 -335.5zM444 1761q0 52 37 88.5t88 36.5t88 -36.5t37 -88.5q0 -51 -37 -87.5t-88 -36.5t-88 36.5t-37 87.5zM800 1761q0 52 36.5 88.5t87.5 36.5q52 0 88.5 -36.5t36.5 -88.5q0 -51 -36.5 -87.5t-88.5 -36.5q-51 0 -87.5 36.5t-36.5 87.5z" />
<glyph unicode="&#xd7;" horiz-adv-x="1014" d="M87 263l249 249l-234 233l173 172l233 -233l249 249l170 -170l-249 -249l233 -233l-172 -172l-233 233l-249 -249z" />
<glyph unicode="&#xd8;" horiz-adv-x="1596" d="M7 750q0 212 97.5 383.5t269 269t383.5 97.5q211 0 383 -97.5t269.5 -269.5t97.5 -383t-97.5 -383t-269.5 -269.5t-383 -97.5q-212 0 -383.5 97.5t-269 269t-97.5 383.5zM49 118l1330 1330l132 -131l-1331 -1331zM307 750q0 -202 125 -336t326 -134q199 0 324 134.5 t125 335.5q0 202 -125.5 336t-325.5 134t-324.5 -134.5t-124.5 -335.5z" />
<glyph unicode="&#xd9;" horiz-adv-x="1467" d="M73 590q0 -105 34.5 -199t96 -164.5t143 -122t178 -78t198.5 -26.5q129 0 246.5 42t207 116.5t143 187t53.5 244.5v910h-300v-830q0 -167 -92.5 -268.5t-257.5 -101.5q-168 0 -259 100t-91 270v830h-300v-910zM444 1907h252l132 -331h-150z" />
<glyph unicode="&#xda;" horiz-adv-x="1467" d="M73 590v910h300v-830q0 -170 91 -270t259 -100q165 0 257.5 101.5t92.5 268.5v830h300v-910q0 -132 -53.5 -244.5t-143 -187t-207 -116.5t-246.5 -42q-102 0 -198.5 26.5t-178 78t-143 122t-96 164.5t-34.5 199zM618 1578l132 331h252l-234 -331h-150z" />
<glyph unicode="&#xdb;" horiz-adv-x="1467" d="M73 590v910h300v-830q0 -170 91 -270t259 -100q165 0 257.5 101.5t92.5 268.5v830h300v-910q0 -132 -53.5 -244.5t-143 -187t-207 -116.5t-246.5 -42q-102 0 -198.5 26.5t-178 78t-143 122t-96 164.5t-34.5 199zM445 1565l250 332h60l248 -332h-152l-126 110l-129 -110 h-151z" />
<glyph unicode="&#xdc;" horiz-adv-x="1467" d="M73 590q0 -105 34.5 -199t96 -164.5t143 -122t178 -78t198.5 -26.5q129 0 246.5 42t207 116.5t143 187t53.5 244.5v910h-300v-830q0 -167 -92.5 -268.5t-257.5 -101.5q-168 0 -259 100t-91 270v830h-300v-910zM423 1761q0 52 37 88.5t88 36.5t88 -36.5t37 -88.5 q0 -51 -37 -87.5t-88 -36.5t-88 36.5t-37 87.5zM779 1761q0 52 36.5 88.5t87.5 36.5q52 0 88.5 -36.5t36.5 -88.5q0 -51 -36.5 -87.5t-88.5 -36.5q-51 0 -87.5 36.5t-36.5 87.5z" />
<glyph unicode="&#xdf;" horiz-adv-x="1236" d="M68 0v1102q0 201 123 299.5t329 98.5q179 0 294 -99.5t115 -277.5q0 -43 -15.5 -91t-40.5 -80q127 -62 199 -185t72 -267q0 -216 -142 -358t-358 -142h-69v240h59q127 0 195 75.5t68 204.5q0 102 -80 175.5t-183 73.5h-127v55q77 28 124.5 86.5t47.5 135.5q0 45 -8 82.5 t-26.5 69t-52.5 49.5t-81 18q-162 0 -162 -145v-1120h-281z" />
<glyph unicode="&#xe0;" d="M62 500q0 208 138 354t345 146q156 0 237 -81v69l280 -1v-987h-280v80q-113 -80 -220 -80q-217 0 -358.5 142t-141.5 358zM309 520q0 -119 72.5 -198.5t190.5 -79.5q71 0 146.5 54.5t75.5 123.5v152q0 75 -73 136t-149 61q-103 0 -183 -73.5t-80 -175.5zM498 1160 l132 331h252l-234 -331h-150z" />
<glyph unicode="&#xe1;" d="M62 500q0 -216 141.5 -358t358.5 -142q107 0 220 80v-80h280v987l-280 1v-69q-81 81 -237 81q-207 0 -345 -146t-138 -354zM270 1491h252l132 -331h-150zM309 520q0 102 80 175.5t183 73.5q76 0 149 -61t73 -136v-152q0 -69 -75.5 -123.5t-146.5 -54.5 q-118 0 -190.5 79.5t-72.5 198.5z" />
<glyph unicode="&#xe2;" d="M62 500q0 208 138 354t345 146q156 0 237 -81v69l280 -1v-987h-280v80q-113 -80 -220 -80q-217 0 -358.5 142t-141.5 358zM292 1159l250 332h60l248 -332h-152l-126 110l-129 -110h-151zM309 520q0 -119 72.5 -198.5t190.5 -79.5q71 0 146.5 54.5t75.5 123.5v152 q0 75 -73 136t-149 61q-103 0 -183 -73.5t-80 -175.5z" />
<glyph unicode="&#xe3;" d="M62 500q0 208 138 354t345 146q156 0 237 -81v69l280 -1v-987h-280v80q-113 -80 -220 -80q-217 0 -358.5 142t-141.5 358zM309 520q0 -119 72.5 -198.5t190.5 -79.5q71 0 146.5 54.5t75.5 123.5v152q0 75 -73 136t-149 61q-103 0 -183 -73.5t-80 -175.5zM360 1278 q64 109 172 109q60 0 128 -32t96 -32q42 0 92 27l41 -74q-64 -109 -171 -109q-53 0 -122 31t-105 31q-43 0 -90 -25z" />
<glyph unicode="&#xe4;" d="M62 500q0 -216 141.5 -358t358.5 -142q107 0 220 80v-80h280v987l-280 1v-69q-81 81 -237 81q-207 0 -345 -146t-138 -354zM309 520q0 102 80 175.5t183 73.5q76 0 149 -61t73 -136v-152q0 -69 -75.5 -123.5t-146.5 -54.5q-118 0 -190.5 79.5t-72.5 198.5zM327 1270 q0 52 37 88.5t88 36.5t88 -36.5t37 -88.5q0 -51 -37 -87.5t-88 -36.5t-88 36.5t-37 87.5zM683 1270q0 52 36.5 88.5t87.5 36.5q52 0 88.5 -36.5t36.5 -88.5q0 -51 -36.5 -87.5t-88.5 -36.5q-51 0 -87.5 36.5t-36.5 87.5z" />
<glyph unicode="&#xe5;" d="M62 500q0 208 138 354t345 146q156 0 237 -81v69l280 -1v-987h-280v80q-113 -80 -220 -80q-217 0 -358.5 142t-141.5 358zM309 520q0 -119 72.5 -198.5t190.5 -79.5q71 0 146.5 54.5t75.5 123.5v152q0 75 -73 136t-149 61q-103 0 -183 -73.5t-80 -175.5zM395 1309 q0 80 55.5 135.5t134.5 55.5t134.5 -56t55.5 -135q0 -78 -56.5 -133.5t-134.5 -55.5q-79 0 -134 55t-55 134zM511 1309q0 -29 21.5 -50.5t51.5 -21.5q29 0 50 21.5t21 50.5t-21 50.5t-50 21.5q-30 0 -51.5 -21.5t-21.5 -50.5z" />
<glyph unicode="&#xe6;" horiz-adv-x="1719" d="M56 319q0 48 12.5 87.5t32 67.5t51.5 50t63.5 35.5t76 22.5t79.5 13t84.5 6t81.5 1.5t78.5 -1.5t68.5 -1q-1 171 -181 171q-151 0 -247 -71l-153 140q80 93 180 128t237 35q220 0 323 -127q91 124 334 124q209 0 344.5 -144.5t135.5 -355.5v-100h-702q4 -71 75.5 -120.5 t146.5 -49.5q78 0 133 14t111 55l153 -141q-140 -158 -397 -158q-239 0 -371 151q-97 -150 -395 -150q-160 0 -257.5 81t-97.5 237zM333 312q0 -30 23 -48.5t49.5 -24t55.5 -5.5q34 0 69 6t71.5 19.5t59.5 41t23 64.5v37h-240q-50 0 -80.5 -21.5t-30.5 -68.5zM965 600h422 q-12 83 -68 126.5t-142 43.5q-74 0 -140 -49.5t-72 -120.5z" />
<glyph unicode="&#xe7;" horiz-adv-x="951" d="M30 495q0 142 61.5 257t174 181.5t254.5 66.5q98 0 202.5 -32.5t159.5 -94.5l-141 -182q-80 79 -212 79q-115 0 -187.5 -77t-72.5 -193q0 -111 70 -190.5t180 -79.5q127 0 239 89l146 -174q-66 -74 -169.5 -109.5t-215.5 -35.5q-214 0 -351.5 140t-137.5 355zM354 -311 l37 48q43 -41 115 -41q24 0 41.5 19t17.5 43q0 13 -3.5 22.5t-8 16t-14.5 11t-16.5 6.5t-19.5 3t-19.5 1h-21h-18.5l-32 202h187v-108q50 0 84.5 -45.5t34.5 -97.5q0 -79 -48 -129t-126 -50q-123 0 -190 99z" />
<glyph unicode="&#xe8;" horiz-adv-x="1100" d="M47 500q0 -135 67.5 -250t182.5 -182.5t250 -67.5q258 0 397 158l-153 141q-55 -40 -111 -54.5t-133 -14.5q-75 0 -146 49.5t-76 120.5h702v100q0 138 -60 252t-170.5 181t-249.5 67q-211 0 -355.5 -144t-144.5 -356zM250 1491h252l132 -331h-150zM335 600q6 71 72 120.5 t140 49.5q86 0 142 -43.5t68 -126.5h-422z" />
<glyph unicode="&#xe9;" horiz-adv-x="1100" d="M47 500q0 212 144.5 356t355.5 144q139 0 249.5 -67t170.5 -181t60 -252v-100h-702q5 -71 76 -120.5t146 -49.5q77 0 133 14.5t111 54.5l153 -141q-139 -158 -397 -158q-135 0 -250 67.5t-182.5 182.5t-67.5 250zM335 600h422q-12 83 -68 126.5t-142 43.5 q-74 0 -140 -49.5t-72 -120.5zM438 1160l132 331h252l-234 -331h-150z" />
<glyph unicode="&#xea;" horiz-adv-x="1100" d="M47 500q0 212 144.5 356t355.5 144q139 0 249.5 -67t170.5 -181t60 -252v-100h-702q5 -71 76 -120.5t146 -49.5q77 0 133 14.5t111 54.5l153 -141q-139 -158 -397 -158q-135 0 -250 67.5t-182.5 182.5t-67.5 250zM262 1159l250 332h60l248 -332h-152l-126 110l-129 -110 h-151zM335 600h422q-12 83 -68 126.5t-142 43.5q-74 0 -140 -49.5t-72 -120.5z" />
<glyph unicode="&#xeb;" horiz-adv-x="1100" d="M47 500q0 -135 67.5 -250t182.5 -182.5t250 -67.5q258 0 397 158l-153 141q-55 -40 -111 -54.5t-133 -14.5q-75 0 -146 49.5t-76 120.5h702v100q0 138 -60 252t-170.5 181t-249.5 67q-211 0 -355.5 -144t-144.5 -356zM237 1270q0 52 37 88.5t88 36.5t88 -36.5t37 -88.5 q0 -51 -37 -87.5t-88 -36.5t-88 36.5t-37 87.5zM335 600q6 71 72 120.5t140 49.5q86 0 142 -43.5t68 -126.5h-422zM593 1270q0 52 36.5 88.5t87.5 36.5q52 0 88.5 -36.5t36.5 -88.5q0 -51 -36.5 -87.5t-88.5 -36.5q-51 0 -87.5 36.5t-36.5 87.5z" />
<glyph unicode="&#xec;" horiz-adv-x="480" d="M-48 1491h252l132 -331h-150zM97 0v985h280v-985h-280z" />
<glyph unicode="&#xed;" horiz-adv-x="480" d="M97 0v985h280v-985h-280zM135 1160l132 331h252l-234 -331h-150z" />
<glyph unicode="&#xee;" horiz-adv-x="619" d="M26 1159l250 332h60l248 -332h-152l-126 110l-129 -110h-151zM173 0h280v985h-280v-985z" />
<glyph unicode="&#xef;" horiz-adv-x="697" d="M48 1270q0 52 37 88.5t88 36.5t88 -36.5t37 -88.5q0 -51 -37 -87.5t-88 -36.5t-88 36.5t-37 87.5zM212 0v985h280v-985h-280zM404 1270q0 52 36.5 88.5t87.5 36.5q52 0 88.5 -36.5t36.5 -88.5q0 -51 -36.5 -87.5t-88.5 -36.5q-51 0 -87.5 36.5t-36.5 87.5z" />
<glyph unicode="&#xf1;" horiz-adv-x="1095" d="M86 0v987h280v-77q101 90 240 90q171 0 280.5 -104.5t109.5 -275.5v-620h-280v550q0 100 -45.5 156.5t-142.5 56.5q-64 0 -113 -45.5t-49 -108.5v-609h-280zM271 1278q64 109 172 109q60 0 128 -32t96 -32q42 0 92 27l41 -74q-64 -109 -171 -109q-53 0 -122 31t-105 31 q-43 0 -90 -25z" />
<glyph unicode="&#xf2;" horiz-adv-x="1156" d="M51 500q0 -219 145.5 -364.5t364.5 -145.5t364.5 145.5t145.5 364.5t-145.5 364.5t-364.5 145.5t-364.5 -145.5t-145.5 -364.5zM240 1491h252l132 -331h-150zM304 499q0 114 71 191t184 77q114 0 185.5 -76.5t71.5 -191.5t-71 -191t-185 -76t-185 76t-71 191z" />
<glyph unicode="&#xf3;" horiz-adv-x="1156" d="M51 500q0 219 145.5 364.5t364.5 145.5t364.5 -145.5t145.5 -364.5t-145.5 -364.5t-364.5 -145.5t-364.5 145.5t-145.5 364.5zM304 499q0 -115 71 -191t185 -76t185 76t71 191t-71.5 191.5t-185.5 76.5q-113 0 -184 -77t-71 -191zM498 1160l132 331h252l-234 -331h-150z " />
<glyph unicode="&#xf4;" horiz-adv-x="1156" d="M51 500q0 219 145.5 364.5t364.5 145.5t364.5 -145.5t145.5 -364.5t-145.5 -364.5t-364.5 -145.5t-364.5 145.5t-145.5 364.5zM292 1159l250 332h60l248 -332h-152l-126 110l-129 -110h-151zM304 499q0 -115 71 -191t185 -76t185 76t71 191t-71.5 191.5t-185.5 76.5 q-113 0 -184 -77t-71 -191z" />
<glyph unicode="&#xf5;" horiz-adv-x="1156" d="M51 500q0 219 145.5 364.5t364.5 145.5t364.5 -145.5t145.5 -364.5t-145.5 -364.5t-364.5 -145.5t-364.5 145.5t-145.5 364.5zM304 499q0 -115 71 -191t185 -76t185 76t71 191t-71.5 191.5t-185.5 76.5q-113 0 -184 -77t-71 -191zM310 1278q64 109 172 109q60 0 128 -32 t96 -32q42 0 92 27l41 -74q-64 -109 -171 -109q-53 0 -122 31t-105 31q-43 0 -90 -25z" />
<glyph unicode="&#xf6;" horiz-adv-x="1156" d="M51 500q0 219 145.5 364.5t364.5 145.5t364.5 -145.5t145.5 -364.5t-145.5 -364.5t-364.5 -145.5t-364.5 145.5t-145.5 364.5zM267 1270q0 52 37 88.5t88 36.5t88 -36.5t37 -88.5q0 -51 -37 -87.5t-88 -36.5t-88 36.5t-37 87.5zM304 499q0 -115 71 -191t185 -76t185 76 t71 191t-71.5 191.5t-185.5 76.5q-113 0 -184 -77t-71 -191zM623 1270q0 52 36.5 88.5t87.5 36.5q52 0 88.5 -36.5t36.5 -88.5q0 -51 -36.5 -87.5t-88.5 -36.5q-51 0 -87.5 36.5t-36.5 87.5z" />
<glyph unicode="&#xf7;" horiz-adv-x="871" d="M13 393h812v240h-812v-240zM262 892q0 60 43.5 103.5t103.5 43.5q61 0 104.5 -43.5t43.5 -103.5q0 -61 -43.5 -104.5t-104.5 -43.5q-60 0 -103.5 43.5t-43.5 104.5zM264 148q0 60 43.5 103.5t103.5 43.5q61 0 104.5 -43.5t43.5 -103.5q0 -61 -43.5 -104.5t-104.5 -43.5 q-60 0 -103.5 43.5t-43.5 104.5z" />
<glyph unicode="&#xf8;" horiz-adv-x="1156" d="M49 118l902 903l132 -132l-903 -903zM51 500q0 219 145.5 364.5t364.5 145.5t364.5 -145.5t145.5 -364.5t-145.5 -364.5t-364.5 -145.5t-364.5 145.5t-145.5 364.5zM304 499q0 -115 71 -191t185 -76t185 76t71 191t-71.5 191.5t-185.5 76.5q-113 0 -184 -77t-71 -191z " />
<glyph unicode="&#xf9;" horiz-adv-x="1104" d="M78 419q0 -185 104 -301.5t286 -116.5q139 0 240 90v-91h280v989h-280v-612q0 -54 -47 -96.5t-102 -42.5q-98 0 -149.5 57t-51.5 156v538h-280v-570zM240 1491h252l132 -331h-150z" />
<glyph unicode="&#xfa;" horiz-adv-x="1104" d="M78 419v570h280v-538q0 -99 51.5 -156t149.5 -57q55 0 102 42.5t47 96.5v612h280v-989h-280v91q-101 -90 -240 -90q-182 0 -286 116.5t-104 301.5zM428 1160l132 331h252l-234 -331h-150z" />
<glyph unicode="&#xfb;" horiz-adv-x="1104" d="M78 419v570h280v-538q0 -99 51.5 -156t149.5 -57q55 0 102 42.5t47 96.5v612h280v-989h-280v91q-101 -90 -240 -90q-182 0 -286 116.5t-104 301.5zM242 1159l250 332h60l248 -332h-152l-126 110l-129 -110h-151z" />
<glyph unicode="&#xfc;" horiz-adv-x="1104" d="M78 419q0 -185 104 -301.5t286 -116.5q139 0 240 90v-91h280v989h-280v-612q0 -54 -47 -96.5t-102 -42.5q-98 0 -149.5 57t-51.5 156v538h-280v-570zM227 1270q0 52 37 88.5t88 36.5t88 -36.5t37 -88.5q0 -51 -37 -87.5t-88 -36.5t-88 36.5t-37 87.5zM583 1270 q0 52 36.5 88.5t87.5 36.5q52 0 88.5 -36.5t36.5 -88.5q0 -51 -36.5 -87.5t-88.5 -36.5q-51 0 -87.5 36.5t-36.5 87.5z" />
<glyph unicode="&#x152;" horiz-adv-x="1995" d="M0 750q0 751 807 751l1108 -1v-280h-692v-437h491v-279h-491v-224h690v-280h-1106q-390 0 -598.5 183t-208.5 567zM300 750q0 -223 127 -337t352 -114h149v901h-149q-225 0 -352 -114t-127 -336z" />
<glyph unicode="&#x153;" horiz-adv-x="1870" d="M51 500q0 219 145.5 364.5t364.5 145.5q112 0 213 -43t173 -125q70 77 166.5 117.5t202.5 40.5q209 0 344.5 -144.5t135.5 -355.5v-100h-702q4 -71 75.5 -120.5t146.5 -49.5q78 0 133 14t111 55l153 -141q-140 -158 -397 -158q-104 0 -200 42.5t-167 118.5 q-71 -83 -173 -127t-215 -44q-219 0 -364.5 145.5t-145.5 364.5zM304 499q0 -115 71 -191t185 -76t185 76t71 191t-71.5 191.5t-185.5 76.5q-113 0 -184 -77t-71 -191zM1104 600h422q-12 83 -68 126.5t-142 43.5q-74 0 -140 -49.5t-72 -120.5z" />
<glyph unicode="&#x2c6;" horiz-adv-x="1024" d="M232 1159l250 332h60l248 -332h-152l-126 110l-129 -110h-151z" />
<glyph unicode="&#x2dc;" horiz-adv-x="673" d="M73 1278q64 109 172 109q60 0 128 -32t96 -32q42 0 92 27l41 -74q-64 -109 -171 -109q-53 0 -122 31t-105 31q-43 0 -90 -25z" />
<glyph unicode="&#x2000;" horiz-adv-x="985" />
<glyph unicode="&#x2001;" horiz-adv-x="1971" />
<glyph unicode="&#x2002;" horiz-adv-x="985" />
<glyph unicode="&#x2003;" horiz-adv-x="1971" />
<glyph unicode="&#x2004;" horiz-adv-x="657" />
<glyph unicode="&#x2005;" horiz-adv-x="492" />
<glyph unicode="&#x2006;" horiz-adv-x="328" />
<glyph unicode="&#x2007;" horiz-adv-x="328" />
<glyph unicode="&#x2008;" horiz-adv-x="246" />
<glyph unicode="&#x2009;" horiz-adv-x="394" />
<glyph unicode="&#x200a;" horiz-adv-x="109" />
<glyph unicode="&#x2010;" horiz-adv-x="506" d="M60 393v240h632v-240h-632z" />
<glyph unicode="&#x2011;" horiz-adv-x="506" d="M60 393v240h632v-240h-632z" />
<glyph unicode="&#x2012;" horiz-adv-x="506" d="M60 393v240h632v-240h-632z" />
<glyph unicode="&#x2013;" horiz-adv-x="1168" d="M23 364v195h1044v-195h-1044z" />
<glyph unicode="&#x2014;" horiz-adv-x="2192" d="M23 364v195h2048v-195h-2048z" />
<glyph unicode="&#x2018;" horiz-adv-x="540" d="M127 1276q0 100 60 185t153 130l47 -85q-35 -13 -58 -44t-27 -69h-7q65 0 110.5 -42t45.5 -107q0 -61 -44 -105t-105 -44q-79 0 -127 50.5t-48 130.5z" />
<glyph unicode="&#x2019;" horiz-adv-x="500" d="M67 1442q0 61 44 105t105 44q79 0 127 -50.5t48 -130.5q0 -100 -60 -185t-153 -130l-47 85q35 14 58 45t27 68h7q-65 0 -110.5 42.5t-45.5 106.5z" />
<glyph unicode="&#x201a;" horiz-adv-x="551" d="M114 144q0 61 44 105t105 44q80 0 128 -50.5t48 -130.5q0 -99 -60 -184.5t-153 -130.5l-48 85q35 14 58 45t27 69h7q-65 0 -110.5 42t-45.5 106z" />
<glyph unicode="&#x201c;" horiz-adv-x="935" d="M102 1276q0 100 60 185t153 130l47 -85q-35 -13 -58 -44t-27 -69h-7q65 0 110.5 -42t45.5 -107q0 -61 -44 -105t-105 -44q-79 0 -127 50.5t-48 130.5zM522 1276q0 100 60 185t153 130l47 -85q-35 -13 -58 -44t-27 -69h-7q65 0 110.5 -42t45.5 -107q0 -61 -44 -105 t-105 -44q-79 0 -127 50.5t-48 130.5z" />
<glyph unicode="&#x201d;" horiz-adv-x="920" d="M67 1442q0 61 44 105t105 44q79 0 127 -50.5t48 -130.5q0 -100 -60 -185t-153 -130l-47 85q35 14 58 45t27 68h7q-65 1 -110.5 43t-45.5 106zM487 1442q0 61 44 105t105 44q79 0 127 -50.5t48 -130.5q0 -100 -60 -185t-153 -130l-47 85q35 14 58 45t27 68h7 q-65 0 -110.5 42.5t-45.5 106.5z" />
<glyph unicode="&#x201e;" horiz-adv-x="953" d="M97 144q0 61 44 105t105 44q79 0 127 -50.5t48 -130.5q0 -99 -60 -184.5t-153 -130.5l-47 85q35 14 58 45t27 69h7q-65 0 -110.5 42t-45.5 106zM517 144q0 61 44 105t105 44q79 0 127 -50.5t48 -130.5q0 -99 -60 -184.5t-153 -130.5l-47 85q35 14 58 45t27 69h7 q-65 0 -110.5 42t-45.5 106z" />
<glyph unicode="&#x2022;" horiz-adv-x="711" d="M68 552q0 118 83 201.5t201 83.5q117 0 200.5 -83.5t83.5 -201.5q0 -116 -84 -200t-200 -84q-117 0 -200.5 84t-83.5 200z" />
<glyph unicode="&#x2026;" horiz-adv-x="1932" d="M125 148q0 60 44 103.5t104 43.5t103.5 -43.5t43.5 -103.5q0 -61 -43.5 -104.5t-103.5 -43.5t-104 43.5t-44 104.5zM825 148q0 60 44 103.5t104 43.5t103.5 -43.5t43.5 -103.5q0 -61 -43.5 -104.5t-103.5 -43.5t-104 43.5t-44 104.5zM1525 148q0 60 44 103.5t104 43.5 t103.5 -43.5t43.5 -103.5q0 -61 -43.5 -104.5t-103.5 -43.5t-104 43.5t-44 104.5z" />
<glyph unicode="&#x202f;" horiz-adv-x="394" />
<glyph unicode="&#x2039;" horiz-adv-x="527" d="M56 495v8l190 268h205l-190 -272l190 -269h-205z" />
<glyph unicode="&#x203a;" horiz-adv-x="545" d="M51 230l190 269l-190 272h204l190 -268v-8l-190 -265h-204z" />
<glyph unicode="&#x205f;" horiz-adv-x="492" />
<glyph unicode="&#x20ac;" horiz-adv-x="1402" d="M-6 537v154h102q-4 57 1 129h-102v157h122q25 144 193 308q219 215 533 215q152 0 278.5 -42.5t242.5 -135.5l-170 -241q-154 120 -351 120q-127 0 -235.5 -58t-160.5 -166h365l-32 -157h-379q-7 -49 -7 -65q0 -33 3 -64h358l-28 -154h-298q45 -109 166.5 -173t249.5 -64 q200 0 349 119l180 -231q-215 -188 -531 -188q-114 0 -235.5 39t-225 107t-177 171t-89.5 220h-122z" />
<glyph unicode="&#xe000;" horiz-adv-x="990" d="M0 0v990h990v-990h-990z" />
<glyph unicode="&#xfb01;" horiz-adv-x="1116" d="M6 758v229h150v115q0 201 123 299.5t329 98.5q54 0 119 -14t129 -40.5t107 -74.5t43 -107q0 -61 -43 -104.5t-104 -43.5q-41 0 -69 15.5t-44.5 37t-32.5 43.5t-44.5 37.5t-69.5 15.5q-31 0 -55.5 -4.5t-41.5 -15t-29 -21t-19 -29.5t-11.5 -33.5t-5.5 -40.5t-1 -42 t0.5 -46t0.5 -46h565v-987h-280v758h-285v-758h-281v758h-150z" />
<glyph unicode="&#xfb02;" horiz-adv-x="1137" d="M6 758v229h150v115q0 201 123 299.5t329 98.5q194 0 301.5 -106.5t107.5 -301.5v-1092h-280v1056q0 45 -4 76.5t-17 64.5t-42.5 50.5t-74.5 17.5q-28 0 -50.5 -4.5t-39 -11t-29 -18.5t-20.5 -23.5t-13 -30t-7.5 -32.5t-3.5 -37t-0.5 -38.5t1 -41t0.5 -41.5h142v-229h-142 v-758h-281v758h-150z" />
<glyph unicode="&#xfb03;" horiz-adv-x="1694" d="M6 758v229h150v115q0 181 96.5 289.5t273.5 108.5q105 0 175 -30l-102 -210q-18 5 -42 5q-31 0 -54 -9.5t-36 -28.5t-20.5 -38.5t-9.5 -50t-2.5 -51.5t1 -53.5t1.5 -46.5h298v115q0 201 123 299.5t329 98.5q54 0 119 -14t129 -40.5t107 -74.5t43 -107q0 -61 -43 -104.5 t-104 -43.5q-41 0 -69 15.5t-44.5 37t-32.5 43.5t-44.5 37.5t-69.5 15.5q-31 0 -55.5 -4.5t-41.5 -15t-29 -21t-19 -29.5t-11.5 -33.5t-5.5 -40.5t-1 -42t0.5 -46t0.5 -46h565v-987h-280v758h-285v-758h-281v758h-298v-758h-281v758h-150z" />
<glyph unicode="&#xfb04;" horiz-adv-x="1721" d="M6 758v229h150v115q0 181 96.5 289.5t273.5 108.5q105 0 175 -30l-102 -210q-18 5 -42 5q-120 0 -120 -145v-133h298v115q0 201 123 299.5t329 98.5q194 0 301.5 -106.5t107.5 -301.5q0 -364 2 -1092h-282v1056q0 45 -4 76.5t-17 64.5t-42.5 50.5t-74.5 17.5 q-162 0 -162 -145v-133h142v-229h-142v-758h-281v758h-298v-758h-281v758h-150z" />
</font>
</defs>
</svg>
