<?xml version="1.0" encoding="utf-8"?>
<!-- Generator: Adobe Illustrator 15.0.0, SVG Export Plug-In . SVG Version: 6.00 Build 0)  -->
<!DOCTYPE svg PUBLIC "-//W3C//DTD SVG 1.1//EN" "http://www.w3.org/Graphics/SVG/1.1/DTD/svg11.dtd">
<svg version="1.1" id="Layer_1" xmlns="http://www.w3.org/2000/svg" xmlns:xlink="http://www.w3.org/1999/xlink" x="0px" y="0px"
	 width="152.127px" height="152.128px" viewBox="0 0 152.127 152.128" enable-background="new 0 0 152.127 152.128"
	 xml:space="preserve">
<g>
	<path fill="#272D33" d="M94.305,90.654h-8.161v6.156h8.104c2.328-0.039,3.524-1.101,3.589-3.185
		C97.771,91.722,96.593,90.732,94.305,90.654z"/>
	<path fill="#272D33" d="M129.849,22.279L76.063,0l-53.785,22.28L0,76.065l22.278,53.785l53.785,22.278l53.785-22.278l22.278-53.785
		L129.849,22.279z M74.106,103.562c0,2.957-1.191,5.467-3.569,7.523c-2.38,2.059-5.371,3.088-8.972,3.088s-6.592-1.029-8.973-3.088
		c-2.378-2.057-3.566-4.566-3.566-7.523V85.234h5.785v16.785c0,2.186,0.645,3.793,1.931,4.822s2.894,1.545,4.823,1.545
		c1.929,0,3.538-0.516,4.823-1.545s1.93-2.637,1.93-4.822V85.234h5.788V103.562z M60.788,73.003c-0.001,0-0.002,0-0.002,0
		c-3.746,0-6.317-0.283-6.425-0.295c-0.812-0.091-1.411-0.796-1.376-1.609c0.038-0.815,0.701-1.461,1.516-1.478
		c14.782-0.293,19.724-9.372,21.187-13.372h-8.734c-0.632,0-1.201-0.385-1.437-0.973c-0.236-0.587-0.091-1.259,0.368-1.695
		l15.92-15.197c0.599-0.572,1.54-0.572,2.139,0l15.795,15.078c0.376,0.283,0.619,0.731,0.619,1.238c0,0.855-0.693,1.548-1.549,1.548
		c-0.003,0-0.009,0-0.016,0H90.07c-0.534,6.265-4.34,11.015-11.104,13.789C72.988,72.488,65.78,73.003,60.788,73.003z
		 M92.993,102.211h-6.85v11.962h-5.788V85.234h12.618c6.752,0,10.127,2.777,10.127,8.334
		C103.101,99.331,99.732,102.211,92.993,102.211z"/>
</g>
</svg>
