<?xml version="1.0" encoding="utf-8"?>
<!-- Generator: Adobe Illustrator 15.0.0, SVG Export Plug-In . SVG Version: 6.00 Build 0)  -->
<!DOCTYPE svg PUBLIC "-//W3C//DTD SVG 1.1//EN" "http://www.w3.org/Graphics/SVG/1.1/DTD/svg11.dtd">
<svg version="1.1" id="Layer_1" xmlns="http://www.w3.org/2000/svg" xmlns:xlink="http://www.w3.org/1999/xlink" x="0px" y="0px"
	 width="202.098px" height="204.75px" viewBox="0 0 202.098 204.75" enable-background="new 0 0 202.098 204.75"
	 xml:space="preserve">
<g id="Layer_1_1_">
	<g display="none">
		<path display="inline" fill="#FFFFFF" d="M415.25,99.5v52c0,2.209-1.791,4-4,4h-92c-2.209,0-4-1.791-4-4v-52c0-2.209,1.791-4,4-4
			h92C413.459,95.5,415.25,97.291,415.25,99.5z"/>
		<path display="inline" fill="#868C91" d="M399.264,103.458v44.085h-67.002v-44.085H399.264z"/>
		<path display="inline" fill="#73797E" d="M349.75,103.458v44.085h-17.487v-44.085H349.75z"/>
		<path display="inline" fill="#D6DDE3" d="M399.416,103.458v44.085h-4.666v-44.085H399.416z"/>
		<circle display="inline" fill="#73797E" cx="372.221" cy="125.5" r="18.451"/>
		<path display="inline" fill="#D6DDE3" d="M407.25,133.5c-1.104,0-2-0.896-2-2v-12c0-1.104,0.896-2,2-2l0,0c1.104,0,2,0.896,2,2v12
			C409.25,132.604,408.353,133.5,407.25,133.5L407.25,133.5z"/>
		<circle display="inline" fill="#D6DDE3" cx="324.125" cy="125.875" r="4.625"/>
	</g>
	
		<linearGradient id="SVGID_1_" gradientUnits="userSpaceOnUse" x1="-2210.7498" y1="8375.1836" x2="-2022.9495" y2="8562.9844" gradientTransform="matrix(-1 0 0 1 -2015.2974 -8365.668)">
		<stop  offset="0.1288" style="stop-color:#FF0024;stop-opacity:0"/>
		<stop  offset="0.4115" style="stop-color:#F60622;stop-opacity:0.4431"/>
		<stop  offset="0.7669" style="stop-color:#E4121D"/>
	</linearGradient>
	<path fill="url(#SVGID_1_)" d="M179.411,2.87c5.806,0,11.612,2.215,16.042,6.646c8.859,8.86,8.859,23.226,0,32.085L39.738,197.316
		c-8.859,8.859-23.225,8.859-32.084,0c-8.861-8.861-8.861-23.228,0-32.088L163.365,9.516C167.796,5.085,173.602,2.87,179.411,2.87z"
		/>
	<path fill="#191F26" d="M29.992,167.282l-11.237,0.005L10.76,175.1l-0.199,11.166l7.811,7.998l11.167,0.061l7.998-7.812
		l0.27-11.232L29.992,167.282z M25.314,175.557c0.262-0.603,1.054-0.914,1.656-0.656c0.297,0.14,0.543,0.392,0.666,0.695
		c0.119,0.303,0.108,0.656-0.012,0.959c-0.14,0.299-0.392,0.545-0.693,0.666c-0.304,0.117-0.657,0.109-0.965-0.023
		c-0.295-0.127-0.542-0.379-0.661-0.682C25.185,176.211,25.193,175.859,25.314,175.557z M18.324,178.316
		c0.26-0.601,1.053-0.912,1.652-0.651c0.298,0.138,0.541,0.38,0.667,0.694c0.121,0.303,0.112,0.656-0.012,0.959
		c-0.137,0.297-0.391,0.547-0.693,0.668c-0.305,0.119-0.656,0.109-0.96-0.012c-0.296-0.142-0.545-0.392-0.665-0.692
		C18.187,178.966,18.201,178.623,18.324,178.316z M32.343,183.375c-0.138,0.318-0.391,0.551-0.689,0.669
		c-0.297,0.116-0.64,0.118-0.959-0.019c-3.254-1.407-7.05,0.093-8.461,3.346c-0.274,0.635-1.011,0.93-1.647,0.652
		c-0.636-0.276-0.926-1.012-0.65-1.646c1.956-4.523,7.232-6.609,11.756-4.65C32.325,182.002,32.617,182.742,32.343,183.375z"/>
</g>
</svg>
