<?xml version="1.0" encoding="utf-8"?>
<!-- Generator: Adobe Illustrator 15.0.0, SVG Export Plug-In . SVG Version: 6.00 Build 0)  -->
<!DOCTYPE svg PUBLIC "-//W3C//DTD SVG 1.1//EN" "http://www.w3.org/Graphics/SVG/1.1/DTD/svg11.dtd">
<svg version="1.1" id="Layer_1" xmlns="http://www.w3.org/2000/svg" xmlns:xlink="http://www.w3.org/1999/xlink" x="0px" y="0px"
	 width="140.32px" height="151.503px" viewBox="0 0 140.32 151.503" enable-background="new 0 0 140.32 151.503"
	 xml:space="preserve">
<polygon opacity="0.2" fill="#272D33" points="0,70.16 20.549,109.772 70.16,130.322 119.771,109.772 140.32,70.16 140.32,81.341 
	119.771,130.953 70.16,151.503 20.549,130.953 0,81.341 "/>
<path fill="#FFFFFF" stroke="#000000" stroke-width="18" stroke-miterlimit="10" d="M-1163.935-653.536"/>
<polygon fill="#272D33" points="140.32,70.161 119.771,119.773 70.16,140.322 20.549,119.773 0,70.161 20.549,20.55 70.16,0 
	119.771,20.55 "/>
<path fill="#FFFFFF" d="M102.681,71.995c-0.006,0.002-0.014,0.002-0.022,0H91.287v4.372c0,16.97-18.311,23.294-29.854,23.294H37.64
	c-1.235,0-2.236-1.003-2.236-2.236c0-1.236,1.001-2.236,2.236-2.236c0.604-0.007,15.035-0.341,15.035-18.821v-4.372H41.304
	c-0.931,0-1.765-0.577-2.093-1.448c-0.327-0.873-0.081-1.856,0.62-2.47l30.674-26.86c0.843-0.737,2.104-0.737,2.946,0l30.499,26.701
	c0.584,0.404,0.967,1.079,0.967,1.841C104.917,70.995,103.916,71.995,102.681,71.995z"/>
</svg>
