<?xml version="1.0" encoding="utf-8"?>
<!-- Generator: Adobe Illustrator 15.0.0, SVG Export Plug-In . SVG Version: 6.00 Build 0)  -->
<!DOCTYPE svg PUBLIC "-//W3C//DTD SVG 1.1//EN" "http://www.w3.org/Graphics/SVG/1.1/DTD/svg11.dtd">
<svg version="1.1" id="Layer_1" xmlns="http://www.w3.org/2000/svg" xmlns:xlink="http://www.w3.org/1999/xlink" x="0px" y="0px"
	 width="152.127px" height="152.128px" viewBox="0 0 152.127 152.128" enable-background="new 0 0 152.127 152.128"
	 xml:space="preserve">
<g>
	<path fill="#272D33" d="M99.652,91.022H89.11v7.949h10.467c3.008-0.051,4.553-1.42,4.636-4.111
		C104.13,92.401,102.609,91.122,99.652,91.022z"/>
	<path fill="#272D33" d="M107.571,0H44.556L0,44.557v63.015l44.556,44.557h63.016l44.556-44.557V44.557L107.571,0z M73.56,107.694
		c0,3.822-1.537,7.061-4.611,9.719c-3.073,2.658-6.937,3.988-11.588,3.988c-4.652,0-8.516-1.33-11.589-3.988
		c-3.074-2.658-4.61-5.896-4.61-9.719V84.018h7.477V105.7c0,2.824,0.83,4.902,2.492,6.23c1.661,1.33,3.738,1.994,6.23,1.994
		s4.568-0.664,6.23-1.994c1.661-1.328,2.492-3.406,2.492-6.23V84.018h7.477V107.694z M56.354,68.219c-0.001,0-0.001,0-0.002,0
		c-4.84,0-8.162-0.365-8.301-0.381c-1.047-0.117-1.823-1.027-1.775-2.08c0.049-1.053,0.905-1.887,1.958-1.908
		c19.095-0.379,25.478-12.106,27.367-17.273H64.318c-0.817,0-1.553-0.498-1.856-1.256s-0.116-1.626,0.476-2.19l20.565-19.631
		c0.773-0.737,1.988-0.737,2.762,0l20.404,19.478c0.485,0.365,0.799,0.946,0.799,1.6c0,1.104-0.895,2-2,2c-0.005,0-0.013,0-0.02,0
		H94.181c-0.689,8.094-5.607,14.229-14.346,17.812C72.112,67.555,62.803,68.219,56.354,68.219z M97.958,105.95H89.11v15.451h-7.477
		V84.018h16.299c8.723,0,13.084,3.588,13.084,10.766C111.017,102.227,106.663,105.95,97.958,105.95z"/>
</g>
</svg>
