<?xml version="1.0" encoding="utf-8"?>
<!-- Generator: Adobe Illustrator 15.0.0, SVG Export Plug-In . SVG Version: 6.00 Build 0)  -->
<!DOCTYPE svg PUBLIC "-//W3C//DTD SVG 1.1//EN" "http://www.w3.org/Graphics/SVG/1.1/DTD/svg11.dtd">
<svg version="1.1" id="Layer_1" xmlns="http://www.w3.org/2000/svg" xmlns:xlink="http://www.w3.org/1999/xlink" x="0px" y="0px"
	 width="481px" height="320px" viewBox="0 0 481 320" enable-background="new 0 0 481 320" xml:space="preserve">
<rect fill="#FF0059" width="481" height="320"/>
<path opacity="0.2" fill="#272D33" d="M322.667,80.833v158.333H481V80.833H322.667z M446.205,204.372l-44.372,18.379l-44.372-18.379
	L339.082,160l18.379-44.372l44.372-18.38l44.372,18.38L464.584,160L446.205,204.372z"/>
<rect x="322.667" y="239.166" opacity="0.2" fill="#272D33" width="175.333" height="80.834"/>
<rect x="322.667" y="-0.001" opacity="0.2" fill="#272D33" width="175.333" height="80.834"/>
<rect x="385.666" fill="#272D33" width="95.334" height="45.895"/>
<text transform="matrix(1 0 0 1 402.2285 35.8945)" fill="#FFFFFF" font-family="'nevis-Bold'" font-size="36">128</text>
<path opacity="0.2" fill="#272D33" d="M160,21.562C83.542,21.562,21.562,83.541,21.562,160c0,76.456,61.98,138.438,138.438,138.438
	S298.438,236.456,298.438,160C298.438,83.541,236.458,21.562,160,21.562z M66.498,146.407v27.208c0,0.893-0.511,1.706-1.315,2.094
	c-0.804,0.388-1.759,0.281-2.458-0.275L45.639,161.83c-1.107-0.881-1.107-2.756,0-3.637l16.871-13.433
	c0.422-0.433,1.011-0.7,1.664-0.7c1.283,0,2.324,1.039,2.324,2.324C66.498,146.391,66.499,146.398,66.498,146.407z M175.434,257.275
	l-13.604,17.086c-0.881,1.107-2.756,1.107-3.637,0l-13.433-16.871c-0.433-0.422-0.7-1.011-0.7-1.664
	c0-1.283,1.039-2.324,2.324-2.324c0.006,0,0.014-0.001,0.022,0h27.208c0.893,0,1.706,0.511,2.094,1.315
	C176.097,255.621,175.99,256.576,175.434,257.275z M173.615,66.498c-0.006,0-0.014,0.001-0.022,0h-27.208
	c-0.893,0-1.706-0.511-2.094-1.315c-0.388-0.804-0.281-1.759,0.275-2.458l13.604-17.086c0.881-1.107,2.756-1.107,3.637,0
	l13.433,16.871c0.433,0.422,0.7,1.011,0.7,1.664C175.939,65.457,174.9,66.498,173.615,66.498z M257.49,175.239
	c-0.422,0.433-1.011,0.7-1.664,0.7c-1.283,0-2.324-1.039-2.324-2.324c0-0.006-0.001-0.014,0-0.022v-27.208
	c0-0.893,0.511-1.706,1.315-2.094c0.804-0.388,1.759-0.281,2.458,0.275l17.086,13.604c1.107,0.881,1.107,2.756,0,3.637
	L257.49,175.239z"/>
<circle opacity="0.2" fill="#272D33" cx="160" cy="160" r="53.748"/>
<circle fill="#272D33" cx="160" cy="160" r="53.748"/>
<path opacity="0.2" fill="#272D33" d="M464.585,170l-18.379,44.372l-44.372,18.379l-44.372-18.379L339.083,170v-10l18.379,44.372
	l44.372,18.379l44.372-18.379L464.585,160V170z"/>
<path fill="#272D33" d="M432.056,157.993l-27.278-23.882c-0.754-0.66-1.881-0.66-2.635,0l-27.435,24.023
	c-0.627,0.549-0.848,1.429-0.555,2.209c0.293,0.779,1.039,1.296,1.872,1.296h10.17v3.909c0,16.53-12.906,16.829-13.447,16.834
	c-1.104,0-2,0.896-2,2s0.896,2,2,2h21.281c10.323,0,26.7-5.656,26.7-20.834v-3.909H430.9c0.007,0.001,0.015,0.001,0.02,0
	c1.105,0,2-0.896,2-2C432.92,158.957,432.578,158.354,432.056,157.993z"/>
<path opacity="0.2" fill="#272D33" d="M612.334,80.833v158.333h158.333V80.833H612.334z M735.872,204.372L691.5,222.751
	l-44.372-18.379L628.749,160l18.379-44.372l44.372-18.38l44.372,18.38L754.251,160L735.872,204.372z"/>
<path opacity="0.2" fill="#272D33" d="M754.252,170l-18.379,44.372l-44.372,18.379l-44.372-18.379L628.75,170v-10l18.379,44.372
	l44.372,18.379l44.372-18.379L754.252,160V170z"/>
<path fill="#272D33" d="M721.723,157.993l-27.278-23.882c-0.754-0.66-1.881-0.66-2.635,0l-27.435,24.023
	c-0.627,0.549-0.848,1.429-0.555,2.209c0.293,0.779,1.039,1.296,1.872,1.296h10.17v3.909c0,16.53-12.906,16.829-13.447,16.834
	c-1.104,0-2,0.896-2,2s0.896,2,2,2h21.281c10.323,0,26.7-5.656,26.7-20.834v-3.909h10.171c0.007,0.001,0.015,0.001,0.02,0
	c1.105,0,2-0.896,2-2C722.587,158.957,722.245,158.354,721.723,157.993z"/>
<path opacity="0.2" fill="#272D33" d="M770.667,80.833v158.333H929V80.833H770.667z M894.205,214.372l-44.372,18.379l-44.372-18.379
	L787.082,170l18.379-44.372l44.372-18.38l44.372,18.38L912.584,170L894.205,214.372z"/>
<path fill="#272D33" d="M880.056,167.993l-27.278-23.882c-0.754-0.66-1.881-0.66-2.635,0l-27.435,24.023
	c-0.627,0.549-0.848,1.429-0.555,2.209c0.293,0.779,1.039,1.296,1.872,1.296h10.17v3.909c0,16.53-12.906,16.829-13.447,16.834
	c-1.104,0-2,0.896-2,2s0.896,2,2,2h21.281c10.323,0,26.7-5.656,26.7-20.834v-3.909H878.9c0.007,0.001,0.015,0.001,0.02,0
	c1.105,0,2-0.896,2-2C880.92,168.957,880.578,168.354,880.056,167.993z"/>
</svg>
