<?xml version="1.0" encoding="utf-8"?>
<!-- Generator: Adobe Illustrator 15.0.0, SVG Export Plug-In . SVG Version: 6.00 Build 0)  -->
<!DOCTYPE svg PUBLIC "-//W3C//DTD SVG 1.1//EN" "http://www.w3.org/Graphics/SVG/1.1/DTD/svg11.dtd">
<svg version="1.1" id="Layer_1" xmlns="http://www.w3.org/2000/svg" xmlns:xlink="http://www.w3.org/1999/xlink" x="0px" y="0px"
	 width="158.333px" height="158.333px" viewBox="0 0 158.333 158.333" enable-background="new 0 0 158.333 158.333"
	 xml:space="preserve">
<path opacity="0.2" fill="#272D33" d="M0,0v158.333h158.333V0H0z M123.538,123.539l-44.372,18.379l-44.372-18.379L16.415,79.167
	l18.379-44.372l44.372-18.38l44.372,18.38l18.379,44.372L123.538,123.539z"/>
<path opacity="0.2" fill="#272D33" d="M141.918,89.167l-18.379,44.372l-44.372,18.379l-44.372-18.379L16.416,89.167v-10
	l18.379,44.372l44.372,18.379l44.372-18.379l18.379-44.372V89.167z"/>
<path fill="#272D33" d="M109.389,77.16L82.11,53.278c-0.754-0.66-1.881-0.66-2.635,0L52.041,77.302
	c-0.627,0.549-0.848,1.429-0.555,2.209c0.293,0.779,1.039,1.296,1.872,1.296h10.17v3.909c0,16.53-12.906,16.829-13.447,16.834
	c-1.104,0-2,0.896-2,2s0.896,2,2,2h21.281c10.323,0,26.7-5.656,26.7-20.834v-3.909h10.171c0.007,0.001,0.015,0.001,0.02,0
	c1.105,0,2-0.896,2-2C110.253,78.124,109.911,77.521,109.389,77.16z"/>
</svg>
